<?xml version="1.0" standalone="no"?>
<!DOCTYPE svg PUBLIC "-//W3C//DTD SVG 20010904//EN"
 "http://www.w3.org/TR/2001/REC-SVG-20010904/DTD/svg10.dtd">
<svg version="1.0" xmlns="http://www.w3.org/2000/svg"
 width="768.000000pt" height="1024.000000pt" viewBox="0 0 768.000000 1024.000000"
 preserveAspectRatio="xMidYMid meet">

<g transform="translate(0.000000,1024.000000) scale(0.100000,-0.100000)"
fill="#000000" stroke="none">
<path d="M4110 7642 c-13 -14 -12 -15 5 -8 11 4 16 4 12 0 -8 -9 12 -36 22
-29 4 2 8 -3 8 -11 0 -9 -6 -13 -14 -9 -8 3 -17 5 -19 5 -2 0 -4 6 -4 13 0 23
-80 50 -129 43 -25 -3 -47 -10 -50 -14 -4 -4 -26 -14 -50 -21 -64 -19 -113
-55 -166 -123 -72 -91 -95 -145 -95 -226 0 -58 5 -78 40 -147 22 -44 40 -83
40 -87 0 -4 -10 -8 -22 -10 -26 -3 -25 2 -3 -127 7 -46 19 -89 24 -94 6 -6 11
-17 11 -24 0 -7 9 -22 20 -33 11 -11 20 -29 20 -40 0 -11 9 -43 20 -72 23 -60
26 -108 8 -108 -27 -1 -69 -47 -74 -82 -10 -58 46 -165 139 -264 17 -19 25
-34 18 -38 -14 -9 -116 117 -151 188 -17 33 -30 71 -31 85 0 25 -1 25 -11 5
-22 -45 45 -205 109 -258 23 -19 47 -28 94 -33 44 -4 60 -3 55 5 -3 6 2 13 13
17 26 8 21 35 -12 64 -15 13 -26 26 -23 29 3 3 12 0 20 -7 8 -6 47 -29 88 -50
l73 -38 18 23 c20 27 65 55 51 32 -5 -8 1 -7 18 4 15 10 34 15 44 11 12 -4 15
-2 12 8 -3 8 1 29 9 47 7 18 11 38 7 45 -5 9 -3 9 7 0 14 -14 30 -17 27 -5 -1
4 2 18 6 31 5 14 4 27 -3 34 -14 14 -15 67 -1 67 6 0 10 11 10 24 0 14 7 31
15 40 11 11 12 17 4 22 -9 5 -6 11 6 21 11 7 16 13 12 13 -4 0 6 26 23 58 16
31 34 82 40 111 12 64 12 83 0 56 -6 -14 -7 -6 -3 23 4 32 1 47 -11 61 -9 9
-13 21 -9 25 4 4 -1 4 -11 0 -14 -5 -17 -4 -12 4 4 7 2 12 -5 12 -8 0 -4 9 8
23 23 25 43 78 43 116 0 18 3 22 9 12 13 -21 22 2 28 75 5 64 5 66 -15 55 -18
-10 -21 -8 -25 17 -4 26 -4 25 -6 -5 0 -17 6 -38 14 -47 8 -8 15 -22 15 -31 0
-16 -2 -16 -25 -1 -13 9 -35 16 -49 16 -14 0 -28 5 -31 10 -3 6 -22 10 -41 10
-23 0 -38 6 -46 20 -10 16 -24 20 -61 20 -30 0 -46 4 -42 10 3 6 0 10 -9 10
-18 0 -26 22 -12 35 6 5 29 10 50 11 36 1 46 7 48 31 1 5 8 13 17 20 13 10 10
12 -24 13 -53 0 -105 32 -98 59 9 36 51 55 121 53 75 -2 173 -91 187 -170 3
-23 17 -50 31 -63 l24 -22 0 25 c0 13 3 28 7 31 3 4 7 46 7 93 1 74 -2 89 -19
105 -11 10 -45 43 -76 74 -58 57 -95 78 -44 25 16 -16 25 -30 21 -30 -15 0
-75 58 -68 65 4 4 -7 4 -24 1 -26 -6 -34 -3 -46 16 -9 13 -33 33 -54 45 -36
19 -40 20 -54 5z m-89 -404 c44 -13 53 -38 13 -38 -33 0 -64 17 -64 35 0 18 2
18 51 3z m354 -140 c11 -32 8 -97 -6 -129 -15 -37 -28 -38 -126 -18 -35 7 -63
16 -63 20 0 3 22 9 50 13 30 4 60 16 79 31 16 14 33 25 39 25 5 0 13 7 16 16
3 9 2 12 -4 9 -6 -4 -10 6 -8 24 3 36 14 40 23 9z m-234 -115 c13 -21 34 -46
47 -57 33 -26 15 -42 -32 -26 -41 13 -76 52 -76 85 0 48 31 47 61 -2z m83 -62
c-2 -3 -12 3 -22 13 -16 17 -16 18 5 5 12 -7 20 -15 17 -18z m69 2 c-7 -2 -19
-2 -25 0 -7 3 -2 5 12 5 14 0 19 -2 13 -5z m-123 -170 c0 -7 -3 -13 -7 -13 -5
0 -18 -3 -30 -6 -18 -5 -23 -2 -23 13 0 16 6 20 30 19 17 -1 30 -7 30 -13z
m30 7 c0 -5 -4 -10 -10 -10 -5 0 -10 5 -10 10 0 6 5 10 10 10 6 0 10 -4 10
-10z m-140 -10 c0 -5 -4 -10 -10 -10 -5 0 -10 5 -10 10 0 6 5 10 10 10 6 0 10
-4 10 -10z m40 -5 c0 -8 -7 -15 -15 -15 -8 0 -15 7 -15 15 0 8 7 15 15 15 8 0
15 -7 15 -15z m111 -39 c-7 -17 -15 -20 -62 -17 -30 1 -56 4 -58 6 -8 8 66 33
96 32 27 0 30 -3 24 -21z m34 -5 c3 -5 1 -12 -5 -16 -5 -3 -10 1 -10 9 0 18 6
21 15 7z m11 -73 c-1 -28 -5 -33 -36 -39 -19 -4 -40 -3 -46 2 -6 5 -14 6 -17
2 -4 -3 -7 -1 -7 5 0 6 20 21 45 33 25 12 45 27 45 31 0 5 4 7 9 4 4 -3 8 -20
7 -38z"/>
<path d="M4440 7014 c-13 -13 -20 -24 -13 -24 6 0 14 -7 17 -16 4 -11 2 -15
-7 -11 -10 4 -12 -3 -9 -24 4 -26 6 -27 20 -12 15 15 35 114 23 112 -3 0 -17
-11 -31 -25z"/>
<path d="M509 6877 l-22 -40 36 7 c24 5 38 3 44 -6 22 -34 80 -51 123 -36 34
11 40 28 10 28 -11 0 -20 5 -20 10 0 6 9 10 19 10 33 0 34 20 1 26 -17 4 -33
11 -36 15 -3 5 -15 9 -27 9 -20 0 -20 0 -1 -16 18 -15 18 -15 -3 -9 -19 5 -22
3 -16 -12 7 -17 6 -17 -11 0 -9 9 -27 17 -39 17 -21 1 -21 1 3 15 14 8 21 15
15 15 -5 1 -20 3 -32 4 -16 2 -27 -8 -44 -37z"/>
<path d="M916 6895 c4 -8 13 -15 21 -15 13 0 13 3 3 15 -7 8 -16 15 -21 15 -5
0 -6 -7 -3 -15z"/>
<path d="M445 6891 c-6 -11 33 -26 42 -17 4 3 1 6 -6 6 -7 0 -9 5 -6 10 3 6
-1 10 -9 10 -8 0 -17 -4 -21 -9z"/>
<path d="M1033 6875 c0 -8 6 -15 13 -15 8 0 11 6 8 15 -4 8 -9 15 -13 15 -4 0
-8 -7 -8 -15z"/>
<path d="M1310 6880 c0 -5 5 -10 11 -10 5 0 7 5 4 10 -3 6 -8 10 -11 10 -2 0
-4 -4 -4 -10z"/>
<path d="M1590 6880 c0 -5 10 -10 23 -10 18 0 19 2 7 10 -19 13 -30 13 -30 0z"/>
<path d="M1864 6854 c-7 -26 9 -54 23 -40 4 4 1 11 -6 15 -8 5 -11 17 -6 30 3
11 4 21 1 21 -3 0 -9 -12 -12 -26z"/>
<path d="M920 6859 c0 -4 8 -24 18 -46 12 -27 22 -37 35 -35 9 2 17 -1 17 -7
0 -6 7 -11 15 -11 22 0 18 17 -6 30 -11 7 -34 26 -50 43 -15 18 -29 29 -29 26z"/>
<path d="M1338 6853 c7 -3 16 -2 19 1 4 3 -2 6 -13 5 -11 0 -14 -3 -6 -6z"/>
<path d="M1520 6844 c0 -8 6 -11 15 -8 8 4 15 9 15 13 0 4 -7 8 -15 8 -8 0
-15 -6 -15 -13z"/>
<path d="M1595 6850 c-3 -5 3 -10 14 -10 12 0 21 5 21 10 0 6 -6 10 -14 10 -8
0 -18 -4 -21 -10z"/>
<path d="M1060 6840 c0 -5 6 -10 14 -10 8 0 18 5 21 10 3 6 -3 10 -14 10 -12
0 -21 -4 -21 -10z"/>
<path d="M170 6831 c0 -6 5 -13 10 -16 6 -3 10 1 10 9 0 9 -4 16 -10 16 -5 0
-10 -4 -10 -9z"/>
<path d="M255 6830 c-3 -5 1 -10 9 -10 8 0 18 5 21 10 3 6 -1 10 -9 10 -8 0
-18 -4 -21 -10z"/>
<path d="M1114 6815 c7 -20 -21 -32 -37 -16 -19 19 -27 12 -15 -13 9 -21 17
-25 50 -23 27 1 37 5 34 14 -7 18 19 16 35 -3 11 -14 13 -14 22 2 11 19 -6 34
-40 34 -12 0 -25 5 -28 10 -10 16 -28 12 -21 -5z"/>
<path d="M1295 6820 c3 -5 10 -10 16 -10 5 0 9 5 9 10 0 6 -7 10 -16 10 -8 0
-12 -4 -9 -10z"/>
<path d="M1436 6811 c-10 -15 5 -41 23 -41 14 1 14 2 -3 15 -10 7 -15 18 -11
24 3 6 4 11 1 11 -3 0 -7 -4 -10 -9z"/>
<path d="M850 6796 c0 -21 17 -29 37 -17 17 10 17 10 1 11 -10 0 -18 5 -18 10
0 6 -4 10 -10 10 -5 0 -10 -6 -10 -14z"/>
<path d="M1509 6799 c-10 -6 -10 -9 -1 -9 6 0 12 -7 12 -15 0 -22 17 -18 23 4
6 22 -13 33 -34 20z"/>
<path d="M185 6790 c-3 -5 -1 -10 4 -10 6 0 11 5 11 10 0 6 -2 10 -4 10 -3 0
-8 -4 -11 -10z"/>
<path d="M443 6793 c-12 -2 -27 -11 -34 -19 -10 -12 -8 -18 9 -34 12 -11 28
-20 37 -20 8 0 15 -5 15 -11 0 -6 -9 -8 -22 -3 -20 6 -21 5 -10 -8 7 -9 10
-22 7 -31 -5 -11 4 -16 38 -21 25 -4 57 -4 71 0 28 7 35 28 12 37 -7 3 -17 18
-20 33 -8 29 -50 76 -60 66 -3 -3 -6 0 -6 6 0 7 -3 11 -7 11 -5 -1 -18 -4 -30
-6z m59 -74 c-23 -9 -32 -2 -32 26 l0 23 24 -21 c22 -19 23 -23 8 -28z"/>
<path d="M1317 6780 c3 -11 9 -17 15 -14 5 3 4 12 -3 20 -16 19 -18 18 -12 -6z"/>
<path d="M1586 6785 c4 -8 10 -12 15 -9 11 6 2 24 -11 24 -5 0 -7 -7 -4 -15z"/>
<path d="M1740 6785 c7 -9 15 -13 17 -11 7 7 -7 26 -19 26 -6 0 -6 -6 2 -15z"/>
<path d="M1952 6780 c15 -24 32 -21 37 6 3 16 1 17 -13 5 -10 -9 -16 -10 -16
-2 0 6 -5 11 -10 11 -6 0 -5 -8 2 -20z"/>
<path d="M1640 6780 c0 -5 5 -10 10 -10 6 0 10 5 10 10 0 6 -4 10 -10 10 -5 0
-10 -4 -10 -10z"/>
<path d="M1705 6770 c20 -22 31 -20 22 5 -4 8 -14 15 -23 15 -16 0 -16 -2 1
-20z"/>
<path d="M1779 6767 c6 -6 11 -20 12 -31 0 -21 0 -21 9 -1 13 30 12 32 -11 38
-17 4 -19 3 -10 -6z"/>
<path d="M120 6759 c0 -5 11 -9 25 -9 14 0 25 4 25 9 0 5 -11 9 -25 9 -14 0
-25 -4 -25 -9z"/>
<path d="M2150 6750 c0 -5 5 -10 11 -10 5 0 7 5 4 10 -3 6 -8 10 -11 10 -2 0
-4 -4 -4 -10z"/>
<path d="M2 6704 c3 -45 5 -49 30 -51 14 -1 39 2 55 7 15 4 21 9 13 9 -22 2
-57 34 -62 57 -2 10 -11 20 -21 22 -16 3 -18 -3 -15 -44z"/>
<path d="M70 6734 c0 -8 5 -12 10 -9 6 3 10 10 10 16 0 5 -4 9 -10 9 -5 0 -10
-7 -10 -16z"/>
<path d="M641 6723 c-16 -18 -14 -20 30 -28 26 -5 39 -2 49 9 16 20 14 22 -30
28 -24 4 -39 1 -49 -9z"/>
<path d="M1857 6734 c-3 -4 1 -13 11 -20 21 -16 32 -17 32 -4 0 6 -6 10 -14
10 -8 0 -16 5 -18 11 -2 5 -7 7 -11 3z"/>
<path d="M575 6710 c-3 -5 3 -10 14 -10 11 0 23 5 26 10 3 6 -3 10 -14 10 -11
0 -23 -4 -26 -10z"/>
<path d="M297 6699 c7 -7 15 -10 18 -7 3 3 -2 9 -12 12 -14 6 -15 5 -6 -5z"/>
<path d="M142 6680 c14 -22 24 -19 15 5 -4 8 -11 15 -17 15 -6 0 -6 -7 2 -20z"/>
<path d="M170 6675 c0 -8 7 -15 15 -15 9 0 12 6 9 15 -4 8 -10 15 -15 15 -5 0
-9 -7 -9 -15z"/>
<path d="M210 6670 c0 -13 7 -20 20 -20 18 0 19 2 8 20 -7 11 -16 20 -20 20
-5 0 -8 -9 -8 -20z"/>
<path d="M298 6673 c-10 -3 -18 -9 -18 -14 0 -12 37 -12 45 0 7 12 -5 19 -27
14z"/>
<path d="M93 6543 c9 -2 23 -2 30 0 6 3 -1 5 -18 5 -16 0 -22 -2 -12 -5z"/>
<path d="M253 6543 c9 -2 23 -2 30 0 6 3 -1 5 -18 5 -16 0 -22 -2 -12 -5z"/>
<path d="M333 6543 c9 -2 25 -2 35 0 9 3 1 5 -18 5 -19 0 -27 -2 -17 -5z"/>
<path d="M421 6536 c12 -10 59 -15 59 -6 0 5 -14 10 -32 10 -17 0 -29 -2 -27
-4z"/>
<path d="M7665 6420 c3 -5 8 -10 11 -10 2 0 4 5 4 10 0 6 -5 10 -11 10 -5 0
-7 -4 -4 -10z"/>
<path d="M4318 6371 c2 -16 -1 -32 -7 -35 -6 -4 -11 -14 -11 -22 0 -14 2 -14
15 0 20 20 25 86 7 86 -5 0 -7 -13 -4 -29z"/>
<path d="M7616 6385 c-9 -9 -16 -20 -16 -25 0 -4 -23 -11 -50 -15 -50 -7 -60
-25 -14 -25 14 0 40 -11 58 -25 18 -14 43 -25 55 -25 13 0 20 -4 16 -11 -4 -6
-13 -8 -20 -5 -8 3 -19 -2 -25 -10 -9 -10 -9 -14 -1 -14 6 0 11 -7 11 -15 0
-8 7 -15 15 -15 8 0 15 7 15 16 0 8 5 12 11 9 7 -5 9 5 7 26 -2 28 -7 34 -25
33 -13 0 -23 5 -23 11 0 8 10 10 25 7 24 -4 25 -2 25 42 0 25 -4 46 -9 46 -5
0 -16 3 -24 6 -8 3 -22 -2 -31 -11z m54 -45 c0 -5 -4 -10 -10 -10 -5 0 -10 5
-10 10 0 6 5 10 10 10 6 0 10 -4 10 -10z"/>
<path d="M7295 6359 c-4 -6 -13 -8 -21 -5 -8 3 -14 -1 -14 -11 0 -12 -3 -13
-15 -3 -24 20 -35 7 -16 -19 23 -30 55 -21 70 19 10 30 8 39 -4 19z"/>
<path d="M7325 6360 c3 -5 8 -10 11 -10 2 0 4 5 4 10 0 6 -5 10 -11 10 -5 0
-7 -4 -4 -10z"/>
<path d="M7420 6330 c0 -5 5 -10 10 -10 6 0 10 5 10 10 0 6 -4 10 -10 10 -5 0
-10 -4 -10 -10z"/>
<path d="M7180 6326 c0 -2 8 -10 18 -17 15 -13 16 -12 3 4 -13 16 -21 21 -21
13z"/>
<path d="M7310 6318 c0 -4 4 -8 9 -8 6 0 12 4 15 8 3 5 -1 9 -9 9 -8 0 -15 -4
-15 -9z"/>
<path d="M7414 6292 c-13 -16 -26 -18 -82 -14 -37 2 -64 1 -59 -4 4 -4 -2 -17
-13 -29 -18 -19 -19 -25 -7 -36 7 -8 12 -20 9 -27 -6 -20 27 -13 38 8 6 11 15
18 20 15 16 -10 20 12 5 25 -13 11 -13 14 2 26 10 7 23 13 28 14 6 0 3 -5 -5
-11 -13 -9 -13 -10 1 -6 9 3 28 -1 43 -8 23 -12 26 -12 26 2 0 9 7 24 16 34
10 11 12 19 5 23 -6 4 -18 -2 -27 -12z m-134 -73 c0 -5 -4 -9 -10 -9 -5 0 -10
7 -10 16 0 8 5 12 10 9 6 -3 10 -10 10 -16z"/>
<path d="M4260 6281 c0 -5 5 -13 10 -16 6 -3 10 -2 10 4 0 5 -4 13 -10 16 -5
3 -10 2 -10 -4z"/>
<path d="M4247 6246 c-4 -10 -1 -13 8 -9 8 3 12 9 9 14 -7 12 -11 11 -17 -5z"/>
<path d="M7447 6247 c-3 -8 1 -14 9 -14 8 0 14 4 14 9 0 5 11 6 25 2 14 -3 25
-2 25 3 0 15 -67 15 -73 0z"/>
<path d="M7530 6245 c0 -8 4 -15 9 -15 10 0 8 -46 -2 -56 -4 -4 -11 6 -17 21
-14 36 -24 26 -15 -14 5 -22 12 -31 26 -31 12 0 19 -7 19 -19 0 -21 16 -35 39
-36 10 0 16 -13 18 -41 3 -47 -15 -70 -47 -61 -11 3 -20 2 -20 -2 0 -12 60
-42 70 -36 6 3 14 -4 18 -16 8 -21 9 -20 22 10 7 17 13 51 14 76 1 25 5 48 9
51 4 4 7 30 7 59 0 44 -3 51 -20 51 -11 0 -20 -6 -20 -13 0 -14 -12 -17 -24
-6 -12 13 -36 11 -36 -2 0 -8 -5 -17 -12 -21 -11 -7 -8 30 7 67 4 11 -3 22
-19 33 -23 14 -26 14 -26 1z m120 -115 c0 -5 -4 -10 -9 -10 -6 0 -13 5 -16 10
-3 6 1 10 9 10 9 0 16 -4 16 -10z m-60 -10 c0 -5 -4 -10 -10 -10 -5 0 -10 5
-10 10 0 6 5 10 10 10 6 0 10 -4 10 -10z"/>
<path d="M6795 6239 c-4 -6 -5 -12 -2 -15 2 -3 7 2 10 11 7 17 1 20 -8 4z"/>
<path d="M6870 6231 c0 -5 5 -13 10 -16 6 -3 10 -2 10 4 0 5 -4 13 -10 16 -5
3 -10 2 -10 -4z"/>
<path d="M7370 6230 c0 -5 4 -10 9 -10 6 0 13 5 16 10 3 6 -1 10 -9 10 -9 0
-16 -4 -16 -10z"/>
<path d="M7073 6213 c9 -9 19 -14 23 -11 10 10 -6 28 -24 28 -15 0 -15 -1 1
-17z"/>
<path d="M7175 6209 c-4 -6 -5 -13 -2 -16 7 -7 27 6 27 18 0 12 -17 12 -25 -2z"/>
<path d="M6510 6200 c-24 -8 -11 -15 19 -11 7 2 11 -4 9 -11 -3 -7 -13 -12
-22 -10 -15 3 -15 0 -4 -18 8 -12 20 -19 31 -16 25 6 21 -7 -8 -20 -21 -10
-25 -9 -30 7 -11 35 -23 19 -14 -18 6 -29 5 -42 -6 -53 -13 -12 -15 -12 -15 7
0 16 -5 20 -20 16 -25 -7 -26 -25 -2 -46 14 -13 21 -14 30 -5 9 9 12 6 12 -15
0 -15 5 -27 11 -27 7 0 9 9 6 21 -4 15 0 23 14 26 15 4 17 9 8 19 -6 7 -8 18
-4 24 9 15 42 12 49 -5 6 -18 47 -20 64 -3 6 6 15 8 19 4 4 -4 2 -10 -4 -14
-6 -4 -10 -19 -8 -34 2 -19 -1 -25 -11 -21 -8 3 -14 11 -14 18 0 15 -35 29
-49 21 -5 -4 -12 0 -15 6 -3 7 -4 -6 -2 -30 2 -24 2 -41 -2 -38 -8 9 -33 -54
-26 -65 8 -14 25 -11 22 4 -2 7 2 14 7 16 40 13 61 41 30 41 -8 0 -15 5 -15
10 0 11 13 13 24 3 3 -4 14 -8 24 -9 9 -2 30 -6 45 -10 22 -5 32 -2 43 15 9
12 20 19 25 16 5 -4 9 3 9 14 0 10 -6 21 -12 24 -9 3 -8 10 6 26 19 21 19 21
0 21 -16 0 -17 2 -4 11 11 8 12 12 3 16 -20 8 -15 23 7 23 11 0 20 4 20 9 0
15 -18 23 -25 11 -3 -5 -15 -10 -25 -10 -22 0 -39 -22 -22 -28 23 -7 12 -27
-15 -28 -16 -1 -39 -5 -52 -9 -18 -6 -23 -5 -19 6 3 8 1 23 -5 33 -7 14 -6 22
4 30 8 6 15 22 17 35 2 23 1 24 -16 8 -24 -22 -30 -21 -50 2 -13 14 -23 16
-42 11z m190 -140 c0 -5 -4 -10 -10 -10 -5 0 -10 5 -10 10 0 6 5 10 10 10 6 0
10 -4 10 -10z"/>
<path d="M6670 6200 c0 -5 5 -10 10 -10 6 0 10 5 10 10 0 6 -4 10 -10 10 -5 0
-10 -4 -10 -10z"/>
<path d="M6714 6198 c3 -12 0 -18 -9 -18 -8 0 -15 -4 -15 -10 0 -15 27 -12 33
3 3 8 1 20 -5 28 -8 11 -9 10 -4 -3z"/>
<path d="M7198 6190 c-7 -11 -19 -20 -26 -20 -8 0 -6 -8 8 -22 23 -25 26 -43
6 -35 -8 3 -20 -1 -27 -9 -10 -12 -13 -12 -24 3 -7 10 -11 21 -9 25 3 5 -2 8
-10 8 -9 0 -16 5 -16 10 0 6 -3 10 -7 10 -12 0 -33 -51 -33 -77 0 -13 -7 -26
-15 -29 -8 -4 -15 -12 -15 -20 0 -17 -16 -19 -26 -3 -3 6 -15 9 -25 6 -12 -3
-19 0 -19 9 0 8 -4 14 -10 14 -5 0 -10 -7 -10 -16 0 -8 -4 -12 -10 -9 -5 3
-10 2 -10 -3 0 -15 -69 -64 -81 -57 -7 5 -7 11 1 20 8 10 7 14 -2 18 -7 3 0 4
16 4 16 -1 31 4 33 11 3 7 -1 11 -7 10 -7 -2 -14 2 -17 9 -3 7 5 10 22 9 37
-5 40 10 4 18 -22 4 -30 10 -25 21 3 8 1 15 -4 15 -16 0 -41 -32 -36 -46 3 -7
0 -11 -7 -8 -7 2 -24 -8 -38 -23 -32 -35 -43 -63 -25 -63 7 0 16 -13 20 -30 4
-21 11 -30 26 -30 11 0 20 -6 20 -12 0 -7 11 -1 25 14 22 26 55 30 55 7 0 -15
-45 -56 -65 -60 -11 -3 -20 -10 -20 -17 0 -6 5 -11 10 -9 6 1 9 6 7 10 -1 5 2
6 7 3 5 -3 9 -23 9 -43 0 -32 -2 -34 -9 -15 -5 12 -13 22 -19 22 -5 0 -13 0
-17 0 -4 0 -8 -5 -9 -12 -1 -7 -3 -17 -4 -23 -6 -25 2 -44 30 -75 16 -18 33
-30 37 -26 4 4 0 12 -10 17 -21 12 -23 31 -2 23 8 -4 15 -1 15 5 0 6 5 11 11
11 5 0 7 -4 4 -10 -3 -5 1 -10 9 -10 9 0 16 -7 16 -15 0 -8 7 -15 15 -15 19 0
19 1 -9 73 -29 74 -41 118 -28 99 5 -8 15 -13 23 -12 30 5 47 -1 53 -15 4 -12
2 -13 -12 -6 -10 5 -24 6 -31 1 -11 -6 -10 -16 4 -54 10 -25 22 -46 28 -46 5
0 7 -8 5 -18 -4 -14 2 -17 38 -19 27 -1 44 3 47 11 3 8 19 12 41 11 20 -2 36
1 36 6 0 6 5 7 10 4 6 -3 10 -15 10 -26 0 -21 4 -22 35 -10 12 5 34 3 55 -4
19 -8 52 -16 73 -20 20 -3 37 -10 37 -15 0 -6 5 -10 10 -10 7 0 7 7 0 21 -13
24 -8 34 14 26 9 -4 12 -14 9 -26 -4 -15 -1 -21 12 -21 13 0 15 6 10 30 -6 26
-4 30 14 30 15 0 21 -6 21 -21 0 -11 4 -18 9 -15 11 7 2 46 -10 46 -5 0 -6 7
-3 15 9 22 22 18 27 -7 3 -17 5 -14 6 10 1 22 -4 35 -16 39 -9 4 -19 1 -21 -5
-7 -23 -22 -1 -16 24 4 14 2 24 -5 24 -6 0 -11 5 -11 10 0 19 28 10 33 -10 3
-14 14 -20 31 -20 14 0 26 5 26 10 0 6 -4 10 -10 10 -5 0 -10 7 -10 16 0 8 -4
13 -9 9 -5 -3 -12 -1 -16 5 -3 5 1 10 9 10 27 0 18 17 -15 29 -46 16 -27 28
36 23 44 -4 55 -2 55 11 0 8 -11 18 -25 21 -16 4 -22 11 -19 21 8 19 30 19 37
1 3 -8 22 -18 41 -21 24 -5 33 -11 29 -21 -3 -8 0 -14 7 -14 6 0 19 -7 28 -16
19 -20 27 -6 18 31 -4 16 -16 27 -34 31 -38 10 -89 63 -71 75 11 7 11 9 -2 9
-9 0 -22 7 -29 15 -16 19 -24 85 -11 85 6 0 8 7 5 15 -4 8 -11 15 -16 15 -6 0
-8 -7 -4 -15 3 -8 2 -15 -3 -15 -16 0 -20 41 -5 47 8 3 14 10 14 15 0 6 -7 8
-15 4 -8 -3 -18 1 -23 10 -5 10 -17 12 -38 8 -27 -5 -30 -9 -26 -37 l5 -32
-20 23 c-27 30 -44 28 -68 -8 -21 -31 -41 -41 -32 -15 4 8 2 17 -4 20 -5 4 -7
11 -3 16 6 11 -13 39 -27 39 -5 0 -14 -9 -21 -20z m222 -20 c0 -5 -4 -10 -10
-10 -5 0 -10 5 -10 10 0 6 5 10 10 10 6 0 10 -4 10 -10z m-190 -25 c0 -8 -7
-15 -15 -15 -16 0 -20 12 -8 23 11 12 23 8 23 -8z m202 -27 c-15 -15 -118 -17
-114 -3 3 12 28 11 56 0 15 -7 18 -5 13 7 -4 12 -1 14 14 11 12 -3 19 0 19 8
0 10 3 10 12 1 9 -9 9 -15 0 -24z m-322 -8 c0 -5 -4 -10 -10 -10 -5 0 -10 -7
-10 -16 0 -8 -4 -13 -9 -10 -13 9 -1 46 15 46 8 0 14 -4 14 -10z m320 -40 c8
-5 11 -10 5 -10 -5 0 -3 -4 5 -10 8 -5 11 -12 8 -15 -9 -9 -26 2 -38 26 -12
21 -4 24 20 9z m-277 -17 c-7 -2 -19 -2 -25 0 -7 3 -2 5 12 5 14 0 19 -2 13
-5z m-333 -53 c0 -5 -4 -10 -10 -10 -5 0 -10 5 -10 10 0 6 5 10 10 10 6 0 10
-4 10 -10z m-25 -30 c-3 -6 1 -7 9 -4 9 3 16 2 16 -4 0 -8 -22 -22 -36 -22 -2
0 -4 9 -4 20 0 11 5 20 11 20 5 0 7 -4 4 -10z m392 -74 c11 -4 14 -2 9 9 -3 9
0 15 9 15 18 0 18 -2 3 -34 -10 -24 -12 -24 -25 -8 -13 16 -14 15 -8 -5 5 -18
2 -23 -12 -24 -10 0 -13 -3 -7 -5 7 -3 9 -14 6 -26 -4 -15 -1 -19 9 -16 8 3
13 11 11 18 -3 15 20 8 25 -7 2 -6 -6 -15 -19 -18 -13 -4 -26 -12 -29 -18 -4
-6 -15 -4 -29 6 l-22 15 21 7 c24 7 25 13 11 49 -12 33 -32 34 -24 2 5 -22 3
-25 -25 -24 -17 1 -31 5 -31 10 0 5 4 7 9 4 15 -10 20 22 5 34 -11 10 -14 10
-14 -1 0 -9 -3 -10 -11 -2 -6 6 -8 16 -5 22 9 14 36 14 36 1 0 -5 7 -10 15
-10 8 0 15 5 15 11 0 6 8 8 19 4 12 -4 21 0 26 12 7 16 8 16 12 1 2 -9 11 -19
20 -22z m-192 -16 c3 -5 -1 -10 -9 -10 -8 0 -18 5 -21 10 -3 6 1 10 9 10 8 0
18 -4 21 -10z m302 -13 c-15 -5 -35 -5 -45 -1 -13 6 -9 9 18 14 44 8 63 -1 27
-13z m77 -4 c10 -25 3 -23 -17 3 -13 18 -14 22 -3 18 8 -3 17 -13 20 -21z
m-14 -43 c0 -5 -4 -10 -10 -10 -5 0 -10 5 -10 10 0 6 5 10 10 10 6 0 10 -4 10
-10z m-258 -12 c-9 -9 -15 -9 -24 0 -9 9 -7 12 12 12 19 0 21 -3 12 -12z m198
-8 c0 -5 -7 -10 -15 -10 -8 0 -15 5 -15 10 0 6 7 10 15 10 8 0 15 -4 15 -10z
m-100 -24 c0 -3 -4 -8 -10 -11 -5 -3 -10 -1 -10 4 0 6 5 11 10 11 6 0 10 -2
10 -4z m170 -5 c0 -5 3 -16 6 -25 3 -9 1 -16 -5 -16 -6 0 -11 9 -11 19 0 11
-6 22 -12 24 -8 3 -6 6 5 6 9 1 17 -3 17 -8z m-325 -11 c6 -10 -43 -23 -56
-15 -5 4 -7 10 -4 14 6 11 54 11 60 1z m101 -17 c-7 -7 -26 7 -26 19 0 6 6 6
15 -2 9 -7 13 -15 11 -17z m111 -20 c3 -7 -4 -9 -18 -6 -15 4 -20 3 -15 -5 4
-7 3 -12 -3 -12 -5 0 -13 5 -16 10 -4 6 -15 8 -26 5 -10 -4 -24 -3 -31 1 -9 6
-5 10 12 15 36 11 93 6 97 -8z"/>
<path d="M6770 6180 c0 -5 7 -10 16 -10 8 0 12 -4 9 -10 -3 -5 1 -10 9 -10 14
0 32 18 25 24 -12 10 -59 15 -59 6z"/>
<path d="M6448 6140 c-16 -29 -16 -30 2 -30 11 0 20 6 20 14 0 8 3 21 6 30 11
28 -10 17 -28 -14z"/>
<path d="M4293 6116 c10 -20 17 -23 46 -20 48 6 50 11 8 29 -54 23 -68 20 -54
-9z"/>
<path d="M6190 6130 c0 -5 7 -10 15 -10 8 0 15 5 15 10 0 6 -7 10 -15 10 -8 0
-15 -4 -15 -10z"/>
<path d="M6138 6043 c3 -26 11 -53 19 -58 8 -6 15 -20 15 -32 1 -12 7 -19 15
-16 10 4 9 12 -3 36 -13 24 -14 35 -5 49 13 20 6 42 -10 32 -6 -3 -9 2 -7 12
2 11 -4 20 -13 22 -14 3 -16 -4 -11 -45z"/>
<path d="M6312 6082 c-10 -3 -10 -8 3 -22 16 -17 15 -20 -14 -51 -17 -17 -31
-34 -31 -36 0 -9 42 20 47 33 3 8 11 14 18 14 14 0 14 12 -1 46 -5 11 -15 19
-22 16z"/>
<path d="M7025 6080 c3 -5 11 -10 16 -10 6 0 7 5 4 10 -3 6 -11 10 -16 10 -6
0 -7 -4 -4 -10z"/>
<path d="M7490 6070 c-13 -8 -12 -10 3 -10 9 0 17 5 17 10 0 12 -1 12 -20 0z"/>
<path d="M7526 6071 c-3 -4 3 -16 13 -25 22 -20 40 -4 21 19 -14 17 -26 19
-34 6z"/>
<path d="M6119 6053 c-1 -5 -1 -11 0 -15 0 -5 -3 -8 -9 -8 -5 0 -10 -5 -10
-11 0 -5 4 -8 9 -5 5 4 12 0 14 -6 3 -7 6 2 6 20 1 28 -7 46 -10 25z"/>
<path d="M5856 6036 c10 -8 21 -12 24 -10 5 6 -21 24 -34 24 -6 0 -1 -6 10
-14z"/>
<path d="M6365 6040 c-3 -5 -1 -10 4 -10 6 0 11 5 11 10 0 6 -2 10 -4 10 -3 0
-8 -4 -11 -10z"/>
<path d="M6353 5985 c0 -8 7 -15 15 -15 7 0 12 5 10 12 -6 18 -25 21 -25 3z"/>
<path d="M6000 5970 c0 -5 5 -10 11 -10 5 0 7 5 4 10 -3 6 -8 10 -11 10 -2 0
-4 -4 -4 -10z"/>
<path d="M6416 5949 c-21 -11 -47 -18 -57 -16 -12 3 -16 0 -12 -9 3 -8 9 -14
14 -14 5 0 9 -4 9 -10 0 -15 -26 -12 -40 5 -7 8 -16 12 -21 10 -5 -3 -14 3
-21 15 -12 19 -48 29 -48 13 0 -15 15 -28 30 -28 10 0 15 -11 16 -35 0 -28 4
-35 20 -33 10 1 13 0 7 -3 -18 -8 -16 -24 2 -24 8 0 15 5 15 10 0 6 11 10 25
10 30 0 35 -32 7 -52 -10 -7 -21 -20 -24 -29 -5 -12 0 -14 21 -11 18 2 34 -3
45 -14 14 -13 20 -14 26 -4 4 7 13 9 19 6 6 -4 11 -2 11 3 0 6 -16 11 -35 11
-26 0 -35 4 -35 16 0 13 8 15 37 12 40 -5 128 34 101 45 -9 4 -7 6 5 6 9 1 17
8 17 16 0 13 -3 13 -20 3 -11 -7 -20 -20 -20 -28 -1 -9 -6 -6 -14 9 -12 21
-14 22 -23 7 -8 -15 -12 -15 -41 0 -18 8 -32 21 -32 27 0 7 -3 22 -6 35 -5 18
0 25 30 37 20 8 36 20 36 25 0 13 1 13 -44 -11z m-66 -84 c0 -8 -4 -15 -9 -15
-13 0 -22 16 -14 24 11 11 23 6 23 -9z"/>
<path d="M5967 5942 c2 -10 13 -24 24 -31 19 -11 18 -9 -2 18 -26 36 -29 37
-22 13z"/>
<path d="M6020 5945 c0 -1 7 -16 15 -31 11 -21 15 -24 16 -11 1 9 2 22 3 29 1
6 -7 12 -16 14 -10 1 -18 1 -18 -1z"/>
<path d="M6106 5941 c-4 -6 -4 -11 1 -11 4 0 1 -5 -7 -10 -8 -5 -10 -10 -5
-10 6 0 17 5 25 10 11 7 12 12 4 20 -9 9 -14 9 -18 1z"/>
<path d="M6596 5922 c-8 -13 14 -82 26 -82 6 0 6 -6 -2 -15 -17 -20 -3 -35 36
-39 15 -2 30 -8 32 -15 7 -20 42 -13 42 10 0 12 4 17 11 13 14 -8 2 36 -13 51
-7 7 -8 3 -3 -12 5 -17 2 -23 -9 -23 -9 0 -16 7 -16 15 0 9 -6 15 -12 14 -39
-5 -48 1 -38 25 13 36 2 66 -26 66 -12 0 -25 -4 -28 -8z"/>
<path d="M6667 5923 c-13 -12 -7 -23 13 -23 11 0 20 -5 20 -11 0 -6 -7 -9 -15
-5 -19 7 -20 -8 -1 -23 10 -8 16 -8 25 3 24 29 -16 86 -42 59z"/>
<path d="M6745 5890 c-3 -11 -2 -28 4 -38 6 -11 7 -22 4 -26 -8 -8 1 -8 21 0
9 3 13 10 10 15 -3 5 -10 6 -16 3 -6 -4 -9 -1 -6 7 3 8 15 13 27 12 36 -4 21
25 -21 40 -11 4 -19 0 -23 -13z"/>
<path d="M6575 5846 c-6 -6 -15 -23 -22 -37 -11 -25 -10 -26 9 -21 12 3 26 -1
32 -9 6 -8 21 -20 33 -26 19 -11 21 -10 16 3 -3 8 -18 21 -34 30 -30 15 -37
30 -17 36 7 3 8 10 2 20 -7 12 -12 13 -19 4z"/>
<path d="M7600 5830 c0 -6 7 -10 15 -10 8 0 15 2 15 4 0 2 -7 6 -15 10 -8 3
-15 1 -15 -4z"/>
<path d="M6090 5820 c0 -5 5 -10 11 -10 5 0 7 5 4 10 -3 6 -8 10 -11 10 -2 0
-4 -4 -4 -10z"/>
<path d="M6290 5795 c0 -9 5 -15 11 -13 6 2 11 8 11 13 0 5 -5 11 -11 13 -6 2
-11 -4 -11 -13z"/>
<path d="M5899 5769 c-6 -33 -11 -43 -31 -61 -13 -11 -22 -25 -20 -30 2 -6 -4
-8 -13 -5 -8 4 -15 2 -15 -3 0 -6 5 -10 10 -10 6 0 10 -5 10 -11 0 -6 -9 -8
-22 -4 -16 4 -19 3 -10 -3 11 -7 8 -14 -14 -31 -14 -11 -31 -21 -35 -21 -5 0
-9 -8 -9 -17 1 -17 1 -17 14 0 20 26 34 20 32 -13 -1 -19 3 -30 11 -30 7 0 12
3 12 8 -3 19 2 25 11 12 8 -12 10 -10 10 10 0 18 3 21 9 11 5 -8 11 -9 15 -3
3 6 2 13 -4 17 -5 3 -10 14 -10 23 0 14 3 13 22 -5 17 -18 19 -25 9 -37 -24
-28 7 -25 38 4 17 17 27 30 23 30 -4 0 0 5 8 10 10 7 11 10 2 10 -7 0 -20 -9
-29 -19 -16 -19 -17 -19 -36 5 -16 21 -17 27 -6 40 11 13 10 18 -4 26 -22 12
-13 28 12 21 16 -4 18 -10 11 -33 -4 -15 -4 -34 1 -41 7 -11 9 -10 9 4 0 10 5
15 10 12 6 -3 10 1 10 10 0 9 4 13 10 10 6 -3 7 1 4 9 -3 9 -10 16 -16 16 -5
0 -6 9 -3 20 4 13 2 20 -7 20 -9 0 -10 2 -1 8 8 5 8 12 -3 26 -8 11 -14 18
-15 15z"/>
<path d="M6055 5761 c-3 -5 -2 -12 3 -15 5 -3 9 1 9 9 0 17 -3 19 -12 6z"/>
<path d="M6716 5722 c-2 -4 6 -9 20 -10 13 -1 24 3 24 8 0 12 -37 14 -44 2z"/>
<path d="M5768 5703 c7 -3 16 -2 19 1 4 3 -2 6 -13 5 -11 0 -14 -3 -6 -6z"/>
<path d="M6676 5694 c-11 -8 -16 -14 -10 -14 13 0 39 18 34 24 -3 2 -14 -2
-24 -10z"/>
<path d="M5720 5690 c0 -5 5 -10 10 -10 6 0 10 5 10 10 0 6 -4 10 -10 10 -5 0
-10 -4 -10 -10z"/>
<path d="M6535 5670 c3 -5 8 -10 11 -10 2 0 4 5 4 10 0 6 -5 10 -11 10 -5 0
-7 -4 -4 -10z"/>
<path d="M6618 5673 c6 -2 18 -2 25 0 6 3 1 5 -13 5 -14 0 -19 -2 -12 -5z"/>
<path d="M6807 5659 c7 -7 15 -10 18 -7 3 3 -2 9 -12 12 -14 6 -15 5 -6 -5z"/>
<path d="M7187 5664 c-3 -4 -4 -11 -1 -15 7 -12 54 -11 54 1 0 6 -4 10 -9 10
-5 0 -16 2 -23 5 -8 3 -17 3 -21 -1z"/>
<path d="M7140 5645 l-25 -14 28 -1 c17 0 27 5 27 15 0 18 1 18 -30 0z"/>
<path d="M5680 5639 c0 -5 5 -7 10 -4 6 3 10 8 10 11 0 2 -4 4 -10 4 -5 0 -10
-5 -10 -11z"/>
<path d="M6260 5641 c0 -6 5 -13 10 -16 6 -3 10 1 10 9 0 9 -4 16 -10 16 -5 0
-10 -4 -10 -9z"/>
<path d="M6355 5640 c-3 -5 1 -10 9 -10 8 0 20 -9 26 -20 9 -16 15 -18 30 -10
25 13 26 32 3 29 -32 -3 -44 1 -38 11 3 6 -1 10 -9 10 -8 0 -18 -4 -21 -10z"/>
<path d="M6520 5631 c0 -12 48 -23 62 -15 8 5 5 10 -8 15 -27 11 -54 11 -54 0z"/>
<path d="M6775 5620 c-3 -5 -1 -10 4 -10 6 0 11 5 11 10 0 6 -2 10 -4 10 -3 0
-8 -4 -11 -10z"/>
<path d="M6726 5605 c-3 -8 -12 -12 -21 -9 -8 4 -15 1 -15 -6 0 -8 9 -10 24
-6 15 4 26 1 29 -7 2 -6 4 0 4 16 1 29 -11 36 -21 12z"/>
<path d="M7245 5610 c3 -5 0 -8 -7 -5 -7 3 -26 1 -43 -4 -29 -9 -29 -9 -5 -11
14 -1 37 -1 53 0 19 1 27 -3 27 -14 0 -9 4 -16 9 -16 4 0 8 13 7 30 -1 24 -5
30 -24 30 -13 0 -20 -4 -17 -10z"/>
<path d="M6225 5600 c3 -5 10 -10 16 -10 5 0 9 5 9 10 0 6 -7 10 -16 10 -8 0
-12 -4 -9 -10z"/>
<path d="M6260 5601 c0 -6 5 -13 10 -16 6 -3 10 1 10 9 0 9 -4 16 -10 16 -5 0
-10 -4 -10 -9z"/>
<path d="M6926 5601 c-7 -11 20 -34 46 -38 14 -2 18 2 16 14 -3 13 -12 17 -31
16 -15 -1 -25 2 -22 8 4 5 4 9 1 9 -3 0 -7 -4 -10 -9z"/>
<path d="M6325 5589 c-11 -16 0 -21 31 -13 25 6 26 8 9 15 -28 11 -33 10 -40
-2z"/>
<path d="M6469 5583 c12 -23 61 -33 61 -13 0 6 -10 10 -23 10 -13 0 -29 6 -36
13 -11 10 -11 8 -2 -10z"/>
<path d="M6560 5586 c0 -2 7 -9 15 -16 12 -10 15 -10 15 4 0 9 -7 16 -15 16
-8 0 -15 -2 -15 -4z"/>
<path d="M6791 5561 l-33 -6 18 -23 c19 -23 54 -23 54 0 0 5 5 6 11 2 7 -4 10
1 7 11 -4 22 -12 24 -57 16z"/>
<path d="M6305 5551 c-3 -5 -1 -12 5 -16 5 -3 10 1 10 9 0 18 -6 21 -15 7z"/>
<path d="M6670 5546 c0 -10 8 -16 22 -16 12 0 19 1 17 3 -2 1 -12 9 -21 16
-15 12 -18 11 -18 -3z"/>
<path d="M6007 5538 c4 -7 8 -17 9 -23 0 -5 2 -16 2 -22 1 -7 7 -13 13 -13 8
0 7 5 -2 16 -10 13 -10 17 2 25 12 8 12 10 -1 19 -21 14 -33 12 -23 -2z"/>
<path d="M6369 5536 c8 -10 9 -16 1 -21 -24 -15 2 -22 30 -8 41 20 38 37 -6
41 -31 2 -35 0 -25 -12z"/>
<path d="M6520 5535 c0 -8 7 -15 15 -15 9 0 18 -7 22 -16 3 -8 16 -20 29 -25
13 -4 24 -16 24 -26 0 -10 8 -27 16 -38 16 -20 16 -20 9 3 -5 16 -2 22 9 22 9
0 16 -5 16 -11 0 -7 9 -9 23 -6 12 4 28 2 36 -2 13 -9 59 5 71 20 8 10 50 -9
50 -22 0 -18 13 -2 17 20 2 15 -5 18 -53 17 -31 -1 -58 -6 -62 -13 -6 -9 -11
-7 -20 7 -7 11 -9 19 -5 18 5 -2 8 1 8 7 0 5 -5 9 -11 7 -7 -1 -15 6 -19 15
-6 17 -7 17 -21 -1 -8 -11 -14 -14 -14 -8 0 7 -7 12 -15 12 -9 0 -15 9 -15 25
0 14 -4 25 -10 25 -5 0 -10 -7 -10 -15 0 -8 -7 -15 -15 -15 -9 0 -18 7 -21 15
-4 8 -17 15 -30 15 -15 0 -24 -6 -24 -15z m160 -74 c0 -18 -17 -20 -36 -6 -18
14 -18 14 9 15 15 0 27 -4 27 -9z"/>
<path d="M7530 5539 c0 -5 5 -7 10 -4 6 3 10 8 10 11 0 2 -4 4 -10 4 -5 0 -10
-5 -10 -11z"/>
<path d="M5928 5505 c-6 -28 6 -34 16 -9 8 22 7 34 -3 34 -5 0 -11 -11 -13
-25z"/>
<path d="M3280 5508 c0 -7 7 -33 14 -58 11 -35 15 -39 15 -19 1 39 -10 89 -20
89 -5 0 -9 -6 -9 -12z"/>
<path d="M6826 5511 c-3 -5 1 -11 9 -15 9 -3 15 0 15 9 0 16 -16 20 -24 6z"/>
<path d="M5771 5494 c0 -11 3 -14 6 -6 3 7 2 16 -1 19 -3 4 -6 -2 -5 -13z"/>
<path d="M5860 5480 c0 -5 5 -10 10 -10 6 0 10 5 10 10 0 6 -4 10 -10 10 -5 0
-10 -4 -10 -10z"/>
<path d="M5960 5483 c0 -6 -3 -18 -6 -27 -3 -9 -2 -16 4 -16 15 0 21 25 11 41
-5 9 -9 9 -9 2z"/>
<path d="M5670 5468 c0 -9 -6 -18 -12 -21 -7 -2 -9 -8 -5 -13 4 -5 12 -2 17 5
4 8 15 11 24 8 21 -8 27 5 10 21 -11 10 -14 10 -14 0 0 -9 -3 -9 -10 2 -8 13
-10 13 -10 -2z"/>
<path d="M7390 5457 c-16 -26 -22 -67 -10 -67 5 0 12 5 15 10 4 6 10 8 15 5 9
-6 8 60 -1 69 -2 3 -11 -5 -19 -17z"/>
<path d="M7460 5459 c-17 -14 -21 -22 -12 -26 6 -2 9 -9 6 -15 -4 -6 7 -8 27
-6 23 2 35 9 37 21 2 10 -3 17 -12 17 -8 0 -16 7 -18 15 -2 11 -8 10 -28 -6z"/>
<path d="M6140 5459 c0 -5 10 -9 22 -9 12 0 18 3 14 7 -10 11 -36 12 -36 2z"/>
<path d="M6261 5454 c0 -11 3 -14 6 -6 3 7 2 16 -1 19 -3 4 -6 -2 -5 -13z"/>
<path d="M6490 5455 c0 -8 -6 -12 -14 -9 -8 3 -17 1 -21 -5 -4 -7 2 -10 17 -7
13 3 26 5 31 5 11 1 8 31 -3 31 -5 0 -10 -7 -10 -15z"/>
<path d="M5130 5445 c-44 -25 -179 -65 -222 -65 -43 0 -108 -19 -108 -31 0 -4
-15 -6 -32 -3 -18 2 -26 1 -18 -3 8 -3 19 -12 23 -20 6 -9 13 -11 20 -5 17 13
76 26 113 23 28 -1 164 41 189 59 6 4 31 13 57 20 54 14 73 40 30 40 -15 -1
-38 -7 -52 -15z"/>
<path d="M6080 5441 c0 -5 6 -12 13 -14 9 -4 9 -7 -1 -15 -16 -11 -5 -42 14
-42 8 0 14 -5 14 -12 0 -6 -3 -9 -6 -5 -10 9 -32 -16 -27 -30 3 -7 -2 -13 -10
-13 -10 0 -13 7 -10 20 4 17 0 20 -24 20 -16 0 -34 5 -41 12 -8 8 -12 8 -12 1
0 -6 15 -20 33 -32 l32 -21 -28 0 c-16 0 -26 4 -23 9 7 11 -22 23 -35 15 -6
-3 -16 -1 -23 5 -9 8 -18 6 -32 -5 -13 -10 -15 -17 -7 -20 7 -3 15 -21 19 -41
5 -26 9 -31 16 -21 6 9 7 5 3 -11 -5 -17 -4 -22 6 -19 8 3 13 17 12 32 -2 35
3 33 23 -11 10 -21 20 -42 22 -47 3 -5 -2 -7 -11 -3 -19 7 -33 -10 -29 -35 4
-23 -4 -23 -31 0 -28 22 -32 42 -9 43 9 0 12 3 5 5 -7 3 -9 12 -6 21 4 11 2
14 -5 9 -7 -4 -12 -12 -12 -17 0 -15 -51 -59 -61 -53 -5 3 -9 -4 -9 -15 0 -12
7 -21 15 -21 8 0 15 5 15 10 0 6 7 10 15 10 18 0 20 -20 3 -20 -21 -1 32 -40
53 -40 10 0 19 -5 19 -11 0 -5 4 -7 10 -4 12 8 -9 43 -30 48 -8 3 2 3 23 2 20
-1 46 -10 57 -20 11 -10 20 -13 20 -7 0 6 -5 12 -12 14 -26 9 6 28 45 28 34
-1 38 -3 24 -11 -9 -5 -23 -7 -30 -3 -9 6 -9 4 1 -8 15 -19 43 -17 51 3 8 19
31 22 31 4 0 -30 18 -14 25 22 4 24 9 32 15 24 5 -9 10 -10 14 -3 4 6 13 9 21
5 8 -3 15 -1 15 5 0 11 -28 24 -39 18 -4 -3 -7 4 -8 14 -2 25 15 36 23 16 3
-9 15 -16 26 -16 13 0 18 -5 15 -13 -8 -20 4 -33 38 -41 23 -6 27 -5 18 5 -6
6 -9 17 -7 24 3 7 -1 12 -8 12 -7 -1 -15 3 -17 8 -2 6 -12 22 -22 36 -10 14
-15 30 -11 34 4 5 -6 -1 -22 -13 -37 -28 -66 -29 -66 -1 0 17 4 20 23 15 14
-3 32 1 43 9 25 19 50 19 58 0 3 -8 13 -15 22 -15 10 0 14 -5 10 -15 -6 -17
18 -22 53 -12 5 1 9 -2 9 -8 0 -5 -5 -9 -11 -7 -7 1 -3 -5 7 -13 13 -10 15
-15 6 -15 -21 0 -2 -14 25 -17 15 -2 29 4 37 16 12 17 16 17 32 5 25 -18 39
-8 25 18 -8 15 -8 19 0 14 6 -4 11 0 11 11 0 16 -6 18 -35 15 -30 -4 -35 -1
-41 22 -3 14 -10 26 -14 26 -9 0 -24 49 -21 68 3 21 -16 13 -34 -15 l-18 -27
-18 23 c-17 21 -24 20 -20 -2 1 -5 -3 -6 -9 -2 -6 3 -8 11 -5 16 4 5 1 9 -4 9
-6 0 -11 -4 -11 -10 0 -5 -7 -10 -15 -10 -9 0 -15 9 -15 22 0 26 -8 20 -13
-10 -2 -11 -15 -33 -31 -47 -31 -29 -38 -31 -30 -10 4 10 0 15 -11 15 -14 0
-15 3 -5 15 14 17 3 38 -17 31 -24 -10 -9 18 18 31 24 13 24 13 2 13 -13 0
-23 6 -24 13 0 6 -5 1 -11 -13 -11 -24 -12 -24 -15 -3 -4 20 -33 42 -33 24z
m208 -110 c3 -8 -1 -12 -9 -9 -7 2 -15 10 -17 17 -3 8 1 12 9 9 7 -2 15 -10
17 -17z m-148 -37 c0 -3 -6 -12 -14 -20 -11 -11 -16 -11 -19 -1 -4 9 -8 9 -15
-1 -15 -21 -62 -43 -62 -29 0 7 15 19 33 28 22 11 33 24 35 42 3 26 3 26 23 6
10 -10 19 -22 19 -25z m-187 15 c3 -13 1 -19 -6 -16 -15 5 -22 37 -9 37 5 0
12 -9 15 -21z m407 -4 c18 -22 2 -37 -19 -17 -17 17 -18 32 -2 32 5 0 14 -7
21 -15z m-116 -60 c3 -8 1 -15 -4 -15 -6 0 -10 7 -10 15 0 8 2 15 4 15 2 0 6
-7 10 -15z m-154 -16 c0 -6 9 -8 20 -4 28 9 25 -2 -7 -30 -26 -21 -29 -22 -46
-8 -16 15 -16 17 0 34 21 21 33 24 33 8z m340 -21 c0 -16 -3 -19 -11 -11 -6 6
-8 16 -5 22 11 17 16 13 16 -11z"/>
<path d="M6925 5440 c-3 -5 -1 -10 4 -10 6 0 11 5 11 10 0 6 -2 10 -4 10 -3 0
-8 -4 -11 -10z"/>
<path d="M5930 5430 c0 -5 5 -10 10 -10 6 0 10 5 10 10 0 6 -4 10 -10 10 -5 0
-10 -4 -10 -10z"/>
<path d="M7320 5431 c0 -6 5 -13 10 -16 6 -3 10 1 10 9 0 9 -4 16 -10 16 -5 0
-10 -4 -10 -9z"/>
<path d="M6006 5414 c-17 -12 -17 -14 -4 -14 9 0 20 5 23 11 11 17 2 18 -19 3z"/>
<path d="M5640 5406 c0 -9 5 -16 10 -16 6 0 10 4 10 9 0 6 -4 13 -10 16 -5 3
-10 -1 -10 -9z"/>
<path d="M5803 5383 c-13 -19 -23 -39 -23 -44 0 -5 -4 -9 -10 -9 -5 0 -16 -13
-25 -30 -9 -16 -11 -30 -6 -30 6 0 17 13 25 29 16 29 41 45 57 35 5 -3 9 -1 9
5 0 5 -5 11 -11 13 -7 2 -7 12 1 32 15 40 9 40 -17 -1z"/>
<path d="M6783 5400 c-6 -23 -14 -25 -31 -8 -9 10 -16 9 -28 -4 -14 -14 -13
-15 12 -10 24 4 26 2 21 -17 -4 -17 -1 -21 18 -21 13 0 27 -4 30 -10 9 -15 25
-12 25 5 0 8 -3 15 -8 15 -4 0 -13 9 -20 21 -8 12 -9 18 -3 14 7 -3 11 2 11
14 0 27 -20 27 -27 1z"/>
<path d="M5716 5402 c-8 -13 3 -42 15 -42 11 0 11 21 0 39 -5 8 -11 9 -15 3z"/>
<path d="M7560 5362 c-7 -26 -20 -53 -27 -61 -8 -7 -11 -21 -8 -31 15 -46 -35
-90 -101 -90 -14 0 -24 -6 -24 -14 0 -22 28 -39 54 -32 13 3 26 2 28 -3 2 -6
14 -12 28 -15 14 -2 34 -7 45 -11 15 -5 17 -4 5 3 -9 7 -15 25 -14 49 3 108 5
124 13 118 16 -9 41 53 32 78 -4 12 -6 27 -4 34 2 6 0 14 -4 16 -5 3 -15 -15
-23 -41z m7 -54 c-3 -7 -5 -2 -5 12 0 14 2 19 5 13 2 -7 2 -19 0 -25z"/>
<path d="M3312 5375 c0 -16 2 -22 5 -12 2 9 2 23 0 30 -3 6 -5 -1 -5 -18z"/>
<path d="M6678 5393 c7 -3 16 -2 19 1 4 3 -2 6 -13 5 -11 0 -14 -3 -6 -6z"/>
<path d="M5128 5364 c-36 -11 -46 -18 -41 -30 6 -16 9 -16 97 7 35 10 37 11
20 24 -23 17 -18 17 -76 -1z"/>
<path d="M5910 5370 c0 -5 4 -10 9 -10 6 0 13 5 16 10 3 6 -1 10 -9 10 -9 0
-16 -4 -16 -10z"/>
<path d="M6180 5370 c0 -5 5 -10 10 -10 6 0 10 5 10 10 0 6 -4 10 -10 10 -5 0
-10 -4 -10 -10z"/>
<path d="M6570 5371 c0 -5 5 -13 10 -16 6 -3 10 -2 10 4 0 5 -4 13 -10 16 -5
3 -10 2 -10 -4z"/>
<path d="M5686 5358 c3 -5 10 -6 15 -3 13 9 11 12 -6 12 -8 0 -12 -4 -9 -9z"/>
<path d="M6605 5337 c-10 -8 -15 -19 -11 -25 4 -8 13 -5 26 8 31 31 21 43 -15
17z"/>
<path d="M3220 5311 c0 -21 6 -30 22 -35 13 -3 27 0 33 6 7 8 6 9 -2 4 -7 -4
-13 -3 -13 3 0 5 4 11 10 13 15 5 -4 28 -28 33 -18 3 -22 -1 -22 -24z"/>
<path d="M5058 5323 c7 -3 16 -2 19 1 4 3 -2 6 -13 5 -11 0 -14 -3 -6 -6z"/>
<path d="M4960 5305 c-30 -6 -66 -9 -80 -5 -28 7 -80 -9 -80 -25 0 -17 140
-10 200 10 37 12 48 20 39 26 -8 5 -16 8 -19 7 -3 0 -30 -6 -60 -13z"/>
<path d="M2397 5274 c-4 -4 -7 -14 -7 -23 0 -11 3 -12 11 -4 6 6 10 16 7 23
-2 6 -7 8 -11 4z"/>
<path d="M5691 5260 c3 -31 -1 -51 -10 -46 -5 3 -11 -3 -14 -14 -3 -11 -7 -23
-9 -27 -1 -3 7 -8 20 -9 23 -4 31 11 10 18 -6 2 -8 10 -4 17 5 7 14 10 21 7 7
-2 21 4 31 15 15 17 16 22 4 29 -8 5 -18 6 -23 3 -5 -3 -13 1 -19 8 -7 12 -9
11 -7 -1z m32 -35 c-3 -9 -8 -14 -10 -11 -3 3 -2 9 2 15 9 16 15 13 8 -4z"/>
<path d="M5895 5260 c3 -5 10 -10 16 -10 5 0 9 5 9 10 0 6 -7 10 -16 10 -8 0
-12 -4 -9 -10z"/>
<path d="M6985 5260 c3 -5 8 -10 11 -10 2 0 4 5 4 10 0 6 -5 10 -11 10 -5 0
-7 -4 -4 -10z"/>
<path d="M5756 5234 c-4 -9 -4 -19 -1 -22 3 -3 11 0 17 6 9 9 9 15 1 23 -7 7
-12 5 -17 -7z"/>
<path d="M3261 5214 c0 -11 3 -14 6 -6 3 7 2 16 -1 19 -3 4 -6 -2 -5 -13z"/>
<path d="M7150 5195 c0 -8 5 -15 10 -15 6 0 10 7 10 15 0 8 -4 15 -10 15 -5 0
-10 -7 -10 -15z"/>
<path d="M5770 5160 c-8 -11 -24 -21 -35 -21 -16 -1 -16 -2 -3 -6 10 -2 15
-10 11 -19 -3 -9 1 -14 13 -14 14 0 15 -3 6 -12 -16 -16 -15 -33 1 -19 8 6 16
8 19 6 3 -3 8 3 11 15 3 11 1 20 -4 20 -14 0 -10 26 6 40 8 7 15 16 15 21 0
16 -25 9 -40 -11z"/>
<path d="M6282 5138 c2 -6 14 -13 27 -15 27 -4 20 12 -9 20 -13 3 -20 1 -18
-5z"/>
<path d="M6646 5139 c6 -11 54 -12 54 -1 0 4 -13 7 -30 8 -16 1 -27 -3 -24 -7z"/>
<path d="M2240 5130 c0 -5 5 -10 11 -10 5 0 7 5 4 10 -3 6 -8 10 -11 10 -2 0
-4 -4 -4 -10z"/>
<path d="M5115 5100 c22 -10 48 -25 57 -33 21 -16 40 -65 32 -78 -3 -6 0 -17
8 -26 8 -10 8 -14 1 -10 -7 5 -14 -2 -19 -15 -9 -31 -52 -70 -67 -62 -7 4 -9
4 -5 -1 8 -8 -69 -50 -85 -47 -13 3 -115 -59 -121 -73 -3 -8 -12 -15 -20 -15
-7 0 -29 -16 -49 -36 l-35 -36 26 -59 c24 -56 27 -59 59 -59 l35 0 -22 35
c-12 20 -19 43 -16 51 5 12 2 15 -9 10 -9 -3 -14 -2 -11 3 3 5 27 8 53 6 60
-2 94 15 140 73 65 81 110 122 136 122 23 0 30 9 55 72 8 20 8 27 -2 31 -8 3
-16 17 -20 32 -14 56 -75 114 -136 129 -14 3 -7 -3 15 -14z"/>
<path d="M5852 5090 c1 -35 6 -37 24 -13 9 13 9 22 2 30 -17 21 -27 15 -26
-17z"/>
<path d="M6050 5100 c0 -5 5 -10 11 -10 5 0 7 5 4 10 -3 6 -8 10 -11 10 -2 0
-4 -4 -4 -10z"/>
<path d="M6285 5100 c-3 -5 -1 -10 4 -10 6 0 11 5 11 10 0 6 -2 10 -4 10 -3 0
-8 -4 -11 -10z"/>
<path d="M6230 5090 c0 -5 5 -10 10 -10 6 0 10 5 10 10 0 6 -4 10 -10 10 -5 0
-10 -4 -10 -10z"/>
<path d="M6144 5082 c3 -6 2 -13 -4 -17 -12 -7 -4 -25 11 -25 13 0 11 37 -3
46 -6 4 -8 3 -4 -4z"/>
<path d="M6186 5075 c-9 -26 -7 -32 5 -12 6 10 9 21 6 23 -2 3 -7 -2 -11 -11z"/>
<path d="M2285 5058 c-14 -18 -14 -21 5 -45 19 -25 20 -25 20 -4 0 12 -4 19
-10 16 -5 -3 -10 -1 -10 5 0 6 6 13 14 16 19 7 27 31 11 31 -7 0 -21 -9 -30
-19z"/>
<path d="M3223 5065 c-39 -17 -42 -24 -9 -18 16 3 65 -15 148 -56 130 -64 192
-83 98 -30 -30 17 -68 43 -84 58 -16 14 -26 20 -22 13 4 -7 -14 1 -40 18 -55
34 -49 33 -91 15z"/>
<path d="M6226 5058 c3 -4 9 -8 15 -8 5 0 9 4 9 8 0 5 -7 9 -15 9 -8 0 -12 -4
-9 -9z"/>
<path d="M6296 5055 c-3 -8 -1 -15 3 -15 5 0 11 7 15 15 3 8 1 15 -3 15 -5 0
-11 -7 -15 -15z"/>
<path d="M5950 5050 c0 -5 7 -10 16 -10 8 0 12 5 9 10 -3 6 -10 10 -16 10 -5
0 -9 -4 -9 -10z"/>
<path d="M6100 5050 c-17 -11 -8 -23 14 -18 9 2 12 8 8 15 -5 8 -13 9 -22 3z"/>
<path d="M5600 5024 c-6 -14 -10 -29 -10 -34 0 -5 -7 -13 -17 -18 -10 -6 -14
-16 -10 -26 4 -9 2 -16 -3 -16 -6 0 -10 -7 -10 -15 0 -8 3 -15 8 -15 13 0 62
58 51 62 -7 2 -7 17 -1 46 11 47 7 55 -8 16z"/>
<path d="M2380 5015 c0 -14 4 -24 8 -21 10 6 52 -38 52 -54 0 -16 -18 -12 -30
8 -9 13 -10 9 -6 -23 3 -25 14 -48 29 -60 13 -12 22 -26 19 -33 -5 -16 13 -15
27 2 17 20 19 118 4 123 -7 3 -13 11 -13 19 0 8 -4 14 -9 14 -5 0 -11 9 -14
20 -6 23 -27 27 -27 5 0 -8 -4 -15 -10 -15 -5 0 -10 6 -10 14 0 8 -4 18 -10
21 -6 4 -10 -5 -10 -20z"/>
<path d="M3148 5013 c-61 -67 -78 -104 -78 -173 0 -63 1 -66 33 -85 l32 -20
-27 -3 c-34 -4 -139 42 -169 74 -27 29 -33 30 -58 5 -19 -19 -19 -19 31 -26
27 -4 52 -13 55 -21 3 -7 15 -16 26 -20 22 -7 22 -7 2 -15 -19 -7 -18 -8 3 -8
21 -1 22 -2 8 -17 -20 -20 -20 -23 2 -18 26 7 61 -76 64 -156 l3 -65 33 -3
c33 -3 41 -19 21 -39 -9 -9 -5 -14 17 -18 16 -4 36 -9 44 -11 8 -2 23 -17 32
-34 10 -18 25 -30 38 -30 29 0 25 -13 -12 -35 -35 -20 -23 -34 12 -15 25 13
42 4 20 -11 -11 -8 -12 -12 -2 -16 6 -2 9 -10 5 -16 -4 -6 -6 -46 -4 -89 1
-51 -2 -78 -9 -78 -6 0 -35 -15 -63 -32 -29 -18 -79 -46 -111 -63 -32 -16 -66
-38 -76 -47 -10 -9 -21 -14 -24 -11 -3 4 -6 2 -6 -4 0 -5 11 -20 25 -33 18
-17 23 -31 21 -54 -2 -17 -1 -35 3 -41 5 -5 5 -39 1 -75 -3 -36 -5 -75 -4 -88
2 -12 -1 -20 -6 -17 -16 10 -5 -30 13 -43 9 -7 17 -26 17 -43 0 -32 -26 -151
-40 -184 -5 -11 -12 -36 -15 -55 -4 -19 -9 -43 -11 -52 -3 -10 0 -18 6 -18 6
0 13 14 17 30 3 17 9 30 14 30 4 0 14 19 21 43 11 39 48 111 48 95 0 -4 -6
-25 -14 -45 -34 -91 -87 -267 -92 -307 -7 -51 0 -92 18 -99 9 -3 14 8 15 36 2
22 5 42 8 45 13 13 15 -11 6 -67 -6 -34 -7 -83 -4 -110 3 -30 1 -51 -5 -55 -8
-5 -8 -15 -2 -32 14 -35 13 -38 -16 -69 -26 -28 -26 -29 -9 -57 13 -23 14 -32
5 -43 -10 -12 -9 -20 4 -40 21 -33 21 -35 -12 -35 -56 0 -101 84 -81 149 6 20
16 44 21 54 24 47 26 112 8 202 -10 50 -23 126 -29 170 -6 44 -14 95 -17 112
-4 28 -2 32 13 27 13 -4 12 -1 -4 12 -28 20 -31 69 -7 95 25 28 23 93 -4 122
-15 16 -22 36 -22 65 l0 41 53 3 52 3 -3 37 c-3 27 3 46 17 64 32 40 26 151
-10 201 -14 20 -19 21 -42 10 -15 -6 -27 -15 -27 -19 0 -5 -8 -8 -17 -8 -10 0
-29 -9 -43 -20 -14 -11 -20 -20 -15 -19 6 1 17 1 25 0 30 -2 -43 -31 -91 -35
-41 -4 -99 -26 -119 -46 -3 -3 -29 -17 -58 -32 -29 -14 -48 -29 -42 -33 6 -3
8 -10 5 -15 -6 -9 24 -24 44 -21 8 1 10 -2 5 -10 -5 -9 -2 -10 9 -6 10 4 17 2
17 -5 0 -15 52 -3 118 27 30 14 61 25 68 25 23 0 16 -25 -13 -50 l-28 -24 25
-6 c19 -5 24 -12 22 -30 -1 -12 2 -28 8 -35 5 -6 11 -33 12 -58 2 -31 7 -46
15 -43 12 5 24 -28 20 -56 -2 -9 -18 -31 -36 -48 -31 -30 -31 -32 -12 -37 12
-3 23 -15 26 -27 8 -36 18 -129 19 -178 1 -27 5 -48 10 -48 4 0 6 -20 5 -44
-2 -24 -1 -42 3 -40 8 5 2 -88 -9 -156 -5 -30 -7 -32 -13 -15 -8 17 -9 18 -9
2 -1 -10 -13 -41 -27 -69 -14 -28 -23 -59 -21 -69 4 -13 0 -19 -11 -20 -11 0
-12 -2 -4 -6 18 -7 15 -23 -9 -43 l-20 -18 20 -7 c12 -3 21 -13 21 -22 0 -9 6
-13 15 -9 23 8 18 -22 -5 -34 -24 -13 -26 -30 -5 -30 8 0 15 -9 15 -19 0 -11
5 -23 10 -26 16 -10 11 -26 -7 -23 -14 2 -17 -3 -15 -19 2 -16 -2 -23 -12 -23
-9 0 -16 -4 -16 -10 0 -5 -7 -10 -15 -10 -8 0 -19 -9 -25 -20 -7 -14 -21 -20
-45 -20 -18 0 -37 -4 -40 -10 -4 -6 19 -10 61 -10 73 0 76 -5 17 -25 l-38 -14
37 -1 c74 0 85 -23 45 -88 -13 -20 -29 -54 -36 -74 -7 -21 -22 -44 -33 -52
-34 -24 -19 -50 31 -56 30 -3 48 -11 55 -25 6 -10 20 -26 30 -35 11 -9 20 -28
21 -41 2 -21 6 -24 33 -21 28 3 32 0 32 -20 1 -36 22 -57 53 -51 15 3 27 10
27 15 0 6 -11 7 -26 4 -19 -5 -25 -3 -22 6 3 8 22 13 49 13 24 0 50 4 56 8 9
6 11 3 6 -10 -8 -21 25 2 117 85 38 33 69 52 85 52 14 0 25 -5 25 -11 0 -5 6
-7 13 -3 32 19 -32 -40 -69 -63 -24 -15 -48 -38 -53 -51 -15 -32 -14 -37 6
-21 15 12 16 12 8 -1 -5 -8 -16 -21 -26 -27 -9 -7 -40 -44 -69 -83 l-52 -70 5
-94 c4 -66 11 -102 24 -124 13 -21 19 -47 17 -79 -1 -31 5 -57 15 -73 9 -14
22 -37 29 -52 16 -38 52 -39 52 -1 0 32 21 93 32 93 15 0 27 -70 17 -103 -5
-17 -9 -33 -9 -34 0 -2 9 -3 21 -3 19 0 21 -5 17 -49 -1 -27 0 -47 4 -45 3 2
4 -5 1 -16 -3 -11 -12 -20 -19 -20 -8 0 -14 -4 -14 -9 0 -11 30 -36 30 -25 1
19 49 -87 56 -121 4 -25 11 -35 20 -31 8 3 14 0 14 -6 0 -6 11 -20 25 -32 15
-13 26 -34 28 -52 2 -30 17 -55 28 -48 4 2 9 -3 13 -11 3 -8 18 -15 33 -15 29
-1 90 -29 63 -30 -9 0 -5 -6 10 -17 14 -10 27 -17 30 -16 3 1 11 -4 18 -10 10
-8 16 -7 22 3 7 12 13 11 30 -5 12 -11 25 -20 29 -20 3 0 5 -5 3 -11 -1 -6 12
-17 30 -24 30 -12 108 -83 108 -99 0 -4 16 -13 35 -20 26 -9 35 -18 35 -34 0
-23 31 -57 51 -57 7 0 8 -7 4 -17 -12 -33 -10 -36 42 -72 28 -20 63 -50 78
-68 14 -18 32 -30 39 -27 16 6 58 -41 82 -95 21 -45 34 -52 34 -19 l0 22 16
-22 c21 -31 48 -30 40 2 -3 13 0 42 8 63 9 25 11 45 5 54 -5 8 -9 37 -9 65 0
56 -24 136 -46 155 -28 23 -16 47 34 65 26 10 48 19 50 20 9 6 32 132 28 150
-4 15 4 30 29 53 44 40 48 90 11 140 -20 26 -22 37 -14 51 10 16 16 15 84 -14
63 -27 74 -35 74 -56 1 -23 2 -24 14 -7 7 9 18 17 24 17 6 0 9 7 6 15 -4 8 -3
15 2 15 14 0 74 -45 74 -55 0 -14 78 -45 96 -38 7 3 14 1 14 -4 0 -10 61 -41
154 -79 39 -15 78 -36 89 -47 10 -10 46 -31 80 -47 34 -16 73 -36 87 -44 14
-8 79 -41 145 -72 66 -32 136 -68 156 -80 20 -13 40 -20 43 -16 4 3 10 2 14
-4 4 -6 33 -21 65 -33 31 -13 61 -29 65 -35 10 -15 82 -49 111 -52 13 -2 31
-9 40 -17 9 -7 28 -18 44 -25 15 -6 27 -16 27 -22 0 -5 10 -10 23 -10 13 0 34
-11 46 -24 22 -23 64 -41 87 -37 6 0 17 -6 24 -14 7 -8 23 -15 36 -15 12 0 26
-4 29 -10 3 -5 15 -10 26 -10 10 0 19 -4 19 -10 0 -6 116 -10 327 -10 l327 0
-34 25 c-34 25 -50 25 -50 -1 0 -18 -2 -18 -43 6 -19 12 -37 30 -40 40 -3 11
-10 20 -17 20 -7 0 -9 -8 -5 -20 4 -11 2 -20 -4 -20 -6 0 -11 -4 -11 -10 0 -5
9 -10 20 -10 11 0 20 -4 20 -10 0 -5 -11 -10 -25 -10 -19 0 -25 5 -25 21 0 17
-5 20 -25 17 -16 -3 -33 2 -47 13 -11 11 -18 19 -13 19 4 0 2 7 -6 16 -7 9
-22 14 -36 11 -17 -3 -23 0 -23 14 0 12 -5 16 -14 13 -9 -3 -19 6 -27 25 -8
19 -19 29 -27 26 -10 -3 -11 1 -7 18 6 18 5 20 -6 9 -23 -21 -43 -13 -83 33
-36 41 -66 58 -66 37 0 -10 -105 10 -117 22 -4 4 -8 18 -8 29 0 16 -6 22 -22
21 -14 0 -23 5 -24 15 0 12 -3 10 -8 -4 -8 -19 -9 -18 -21 8 -15 30 -25 34
-34 12 -5 -13 -8 -13 -25 1 -11 9 -17 23 -14 30 6 16 -30 27 -58 19 -16 -5
-28 1 -50 24 -15 17 -35 31 -43 31 -9 0 -13 6 -10 14 3 9 -9 17 -40 26 -26 7
-46 16 -46 21 0 6 -21 17 -50 24 -13 4 -58 27 -85 44 -16 11 -39 20 -49 20
-11 1 -42 18 -70 39 -28 22 -67 47 -86 57 -19 9 -49 28 -67 41 -17 13 -40 24
-51 24 -11 0 -31 12 -46 26 -14 15 -26 24 -26 20 0 -4 -18 3 -40 15 -22 13
-39 28 -36 35 3 7 -2 10 -14 7 -10 -3 -21 0 -24 6 -4 6 -17 11 -29 12 -12 0
-17 3 -11 5 9 4 9 11 0 29 -14 31 -49 48 -65 32 -9 -9 -14 -8 -21 3 -12 19
-13 50 -1 50 5 0 7 -10 3 -23 -5 -21 -4 -21 14 -6 10 9 26 19 34 22 10 4 7 6
-7 6 -13 1 -23 5 -23 10 0 11 79 -6 97 -21 11 -9 68 -26 103 -31 8 -1 21 -10
28 -19 17 -23 32 -23 32 1 0 10 9 21 20 24 13 3 18 11 14 20 -7 19 27 18 39
-1 7 -11 11 -11 24 0 14 11 13 13 -7 18 -36 8 -40 34 -5 27 31 -5 115 26 115
43 0 5 9 10 20 10 21 0 27 15 10 25 -17 11 -11 25 11 25 18 0 20 4 14 28 -3
15 -9 42 -12 60 -3 17 -11 32 -18 32 -7 0 -15 9 -18 21 -3 12 -10 18 -15 15
-5 -3 -40 10 -76 29 -37 19 -81 36 -99 39 -18 2 -52 11 -77 21 -25 9 -58 19
-73 22 -20 4 -26 10 -23 20 3 8 6 27 6 43 0 21 6 29 25 34 24 6 36 36 15 36
-5 0 -10 6 -10 13 0 7 -10 17 -22 22 -31 14 -34 33 -5 28 12 -3 27 -14 32 -26
13 -27 31 -32 39 -10 4 9 4 14 0 10 -8 -7 -34 10 -34 24 0 4 10 9 22 11 13 2
24 11 27 23 3 17 1 18 -13 6 -9 -8 -23 -10 -33 -6 -10 5 -24 7 -32 6 -7 -1
-20 0 -29 4 -14 5 -13 9 8 25 19 15 21 20 8 20 -24 0 -48 -11 -48 -21 0 -6 -9
-19 -19 -30 -19 -20 -19 -20 -25 -1 -4 11 -27 42 -51 68 -36 39 -45 56 -45 86
0 20 -4 39 -10 43 -5 3 -9 18 -9 33 2 62 -11 175 -20 186 -5 6 -46 27 -90 46
-44 18 -78 37 -75 42 3 4 -3 8 -13 8 -16 0 -172 56 -182 66 -2 2 4 15 13 28 9
14 16 38 16 54 0 16 10 51 22 78 13 27 32 94 44 149 12 55 33 130 48 168 14
37 33 107 42 155 20 103 76 349 104 447 14 53 20 109 22 232 3 159 3 161 -14
129 -23 -45 -71 -84 -145 -118 -60 -27 -211 -58 -285 -58 -20 0 -64 -7 -98
-16 -37 -9 -66 -12 -71 -7 -5 5 -14 36 -20 69 -21 111 -22 113 -30 49 -4 -34
-11 -76 -16 -95 -8 -31 -13 -35 -39 -33 -16 2 -96 7 -179 12 -177 10 -284 35
-399 92 -85 42 -130 78 -176 142 -17 23 -30 33 -33 25 -2 -7 -2 -4 0 7 3 11 5
38 4 60 -4 220 -2 294 13 340 9 30 16 86 16 140 0 125 21 359 33 367 6 3 15 4
21 2 12 -4 307 -34 337 -34 10 0 46 -25 80 -55 34 -30 79 -60 100 -66 21 -7
47 -20 58 -31 11 -10 26 -18 34 -18 15 0 49 -34 65 -66 7 -12 14 -55 17 -95 7
-88 15 -103 15 -28 1 38 3 49 10 38 8 -14 19 -14 96 -3 82 12 117 28 146 69 4
6 12 3 20 -7 15 -21 78 -36 78 -19 0 6 -5 11 -10 11 -6 0 -4 13 5 30 15 30 13
70 -4 70 -5 0 -14 20 -20 44 -9 36 -22 53 -81 100 -44 36 -70 51 -70 42 0 -8
16 -48 35 -89 36 -76 42 -97 26 -97 -12 0 -42 47 -40 63 1 6 1 19 -1 27 -1 11
-3 10 -9 -4 -6 -15 -12 -7 -34 42 -23 54 -30 62 -64 71 -45 13 -64 0 -41 -26
23 -26 112 -212 105 -219 -3 -4 -12 9 -20 27 -8 19 -24 45 -36 59 -12 14 -30
39 -40 56 -22 36 -60 52 -62 26 -1 -10 -1 -25 0 -34 2 -12 -4 -15 -21 -11 -34
9 -96 50 -110 73 -10 15 -24 20 -55 20 -24 0 -43 5 -43 10 0 6 6 10 14 10 8 0
18 5 22 12 5 8 2 9 -9 5 -10 -4 -25 -10 -34 -14 -12 -5 -15 -2 -10 10 5 13 -5
20 -43 34 -28 10 -50 23 -50 30 0 7 -10 18 -22 24 -12 7 -29 20 -38 31 -8 10
-26 20 -40 22 -14 1 -30 5 -35 8 -6 3 -26 9 -45 13 -34 7 -70 24 -80 36 -5 6
-76 25 -135 36 -16 3 -45 21 -62 39 -18 19 -39 34 -45 34 -7 0 -24 3 -37 7
-18 5 -22 3 -16 -7 6 -9 4 -11 -4 -6 -7 5 -10 14 -7 22 4 12 2 12 -14 4 -24
-13 -25 -7 -4 25 21 33 14 32 -18 -2z m996 -579 c14 -26 26 -52 26 -58 -1 -16
-40 33 -40 50 0 7 -9 20 -21 28 -12 8 -18 19 -14 25 9 16 20 6 49 -45z m-1344
-674 c0 -5 12 -10 26 -10 14 0 23 -4 19 -10 -3 -5 -44 -10 -91 -10 -58 0 -83
3 -79 11 4 6 14 8 22 5 9 -4 21 -2 27 3 6 5 22 11 36 14 14 2 28 5 33 6 4 0 7
-3 7 -9z m2258 -2271 c-2 -6 -8 -10 -13 -10 -5 0 -11 4 -13 10 -2 6 4 11 13
11 9 0 15 -5 13 -11z m-1931 -151 c-3 -8 -6 -5 -6 6 -1 11 2 17 5 13 3 -3 4
-12 1 -19z m2240 -30 c-3 -8 -6 -5 -6 6 -1 11 2 17 5 13 3 -3 4 -12 1 -19z
m-2097 -18 c0 -5 -4 -10 -10 -10 -5 0 -10 5 -10 10 0 6 5 10 10 10 6 0 10 -4
10 -10z m237 -372 c-2 -24 -4 -5 -4 42 0 47 2 66 4 43 2 -24 2 -62 0 -85z
m1720 100 c-3 -8 -6 -5 -6 6 -1 11 2 17 5 13 3 -3 4 -12 1 -19z m-208 -57 c9
-6 10 -11 2 -15 -13 -8 -31 1 -31 15 0 11 11 11 29 0z m-1522 -153 c-3 -8 -6
-5 -6 6 -1 11 2 17 5 13 3 -3 4 -12 1 -19z m2247 -309 c-8 -13 -24 -1 -24 18
0 13 3 13 15 3 8 -7 12 -16 9 -21z"/>
<path d="M5400 5032 c0 -14 11 -21 26 -15 8 3 11 9 8 14 -7 11 -34 12 -34 1z"/>
<path d="M1930 5021 c0 -5 5 -13 10 -16 6 -3 10 -2 10 4 0 5 -4 13 -10 16 -5
3 -10 2 -10 -4z"/>
<path d="M2190 5020 c0 -6 7 -10 15 -10 8 0 15 2 15 4 0 2 -7 6 -15 10 -8 3
-15 1 -15 -4z"/>
<path d="M2341 5013 c-1 -12 -5 -25 -11 -28 -5 -3 -10 -15 -10 -26 0 -10 5
-19 10 -19 6 0 10 -7 10 -15 0 -8 6 -15 14 -15 8 0 21 -2 29 -5 10 -5 13 1 9
25 -5 36 -20 50 -16 15 1 -14 -2 -25 -7 -25 -5 0 -9 17 -10 38 0 20 -4 46 -9
57 -8 19 -9 19 -9 -2z"/>
<path d="M4830 5011 c0 -12 5 -21 10 -21 6 0 10 6 10 14 0 8 -4 18 -10 21 -5
3 -10 -3 -10 -14z"/>
<path d="M2560 5010 c0 -5 7 -10 16 -10 8 0 12 5 9 10 -3 6 -10 10 -16 10 -5
0 -9 -4 -9 -10z"/>
<path d="M6176 5005 c-15 -11 -17 -18 -9 -26 6 -6 10 -17 9 -23 -2 -6 -1 -8 1
-3 3 4 12 7 21 8 11 0 12 2 5 6 -18 7 -16 23 2 23 9 0 18 -7 21 -15 4 -8 12
-15 20 -15 16 0 19 -16 4 -25 -6 -4 -8 -10 -5 -15 3 -5 1 -11 -4 -14 -5 -4
-13 -2 -16 4 -4 6 -23 10 -43 10 -20 -1 -54 3 -74 8 -40 11 -58 1 -58 -31 0
-13 5 -17 15 -13 8 3 15 0 15 -7 0 -9 3 -8 9 1 6 11 11 10 25 -3 9 -9 16 -12
16 -6 0 6 7 11 15 11 8 0 15 -6 15 -13 0 -7 13 -13 30 -13 17 -1 30 3 30 8 0
6 7 5 15 -2 14 -11 19 -7 16 12 0 4 6 5 14 2 8 -4 15 -1 15 6 0 6 5 8 12 4 8
-5 9 -2 5 9 -5 14 -1 17 26 14 26 -2 32 2 32 18 0 11 -7 20 -15 20 -8 0 -19 6
-23 13 -4 6 -15 12 -22 12 -8 0 -15 7 -15 15 0 20 -37 39 -43 22 -4 -9 -6 -9
-6 1 -1 16 -31 15 -55 -3z m-46 -95 c0 -5 -5 -10 -11 -10 -5 0 -7 5 -4 10 3 6
8 10 11 10 2 0 4 -4 4 -10z"/>
<path d="M6372 4994 c-16 -22 -21 -25 -22 -11 0 9 -4 17 -10 17 -17 0 -11 -25
10 -38 17 -10 22 -9 36 13 24 36 12 53 -14 19z"/>
<path d="M5540 5001 c0 -6 5 -13 10 -16 6 -3 10 1 10 9 0 9 -4 16 -10 16 -5 0
-10 -4 -10 -9z"/>
<path d="M5970 5000 c0 -5 5 -10 10 -10 6 0 10 5 10 10 0 6 -4 10 -10 10 -5 0
-10 -4 -10 -10z"/>
<path d="M7640 5000 c0 -5 5 -10 10 -10 6 0 10 5 10 10 0 6 -4 10 -10 10 -5 0
-10 -4 -10 -10z"/>
<path d="M2525 4990 c-11 -4 -23 -6 -27 -3 -5 2 -8 -3 -8 -11 0 -9 5 -16 10
-16 6 0 10 -6 10 -14 0 -8 7 -17 16 -20 13 -5 15 -2 11 13 -3 11 0 22 5 23 6
2 9 11 7 20 -3 11 -10 13 -24 8z"/>
<path d="M5402 4991 c-11 -7 -11 -9 1 -14 16 -6 27 0 27 15 0 10 -11 10 -28
-1z"/>
<path d="M5445 4990 c3 -5 8 -10 11 -10 2 0 4 5 4 10 0 6 -5 10 -11 10 -5 0
-7 -4 -4 -10z"/>
<path d="M5463 4973 c-7 -14 -10 -23 -7 -20 11 11 34 -21 28 -37 -5 -12 -2
-15 9 -10 12 4 14 1 10 -15 -5 -21 -29 -27 -90 -23 -14 0 -23 -5 -23 -14 0 -8
-10 -14 -22 -15 -44 -2 34 -19 95 -21 31 -1 57 -6 57 -10 0 -18 17 -6 31 20
17 33 30 43 47 37 8 -3 12 0 9 7 -2 7 -17 13 -33 12 -31 0 -59 20 -49 36 3 5
2 10 -4 10 -6 0 -19 16 -28 35 l-18 34 -12 -26z m-8 -123 c-27 -12 -43 -12
-25 0 8 5 22 9 30 9 10 0 8 -3 -5 -9z"/>
<path d="M2170 4974 c0 -8 5 -12 10 -9 6 3 10 10 10 16 0 5 -4 9 -10 9 -5 0
-10 -7 -10 -16z"/>
<path d="M2296 4963 c-5 -16 -15 -23 -32 -23 -13 0 -24 -6 -24 -12 -1 -7 -9
-3 -19 10 -25 29 -33 28 -21 -4 6 -14 8 -29 5 -33 -2 -5 1 -20 8 -35 10 -21
17 -25 36 -21 18 5 22 3 18 -9 -4 -10 -1 -16 8 -16 7 0 16 -14 20 -31 9 -41
30 -47 62 -15 25 25 25 26 4 26 -12 0 -32 9 -44 20 -19 18 -20 23 -8 43 8 12
15 32 17 43 2 17 -2 21 -20 17 -15 -3 -17 -2 -8 5 8 5 12 20 10 33 l-4 24 -8
-22z"/>
<path d="M4770 4960 c0 -5 5 -10 10 -10 6 0 10 5 10 10 0 6 -4 10 -10 10 -5 0
-10 -4 -10 -10z"/>
<path d="M6400 4960 c0 -5 7 -7 15 -4 8 4 15 8 15 10 0 2 -7 4 -15 4 -8 0 -15
-4 -15 -10z"/>
<path d="M2723 4943 c-7 -3 -13 -13 -13 -24 0 -12 5 -16 15 -13 11 5 13 2 9
-9 -6 -16 -34 -12 -34 4 0 5 -6 9 -14 9 -9 0 -12 -8 -8 -26 3 -19 7 -22 13
-12 6 9 9 7 9 -8 0 -12 -9 -31 -19 -43 -11 -13 -17 -29 -14 -37 6 -16 29 -19
38 -4 4 6 11 7 17 4 7 -4 8 -2 4 4 -4 7 3 14 19 18 20 5 25 11 22 25 -4 14 0
19 13 19 10 0 27 3 37 7 12 4 10 0 -7 -15 -19 -15 -22 -23 -14 -32 9 -9 21 -8
48 5 20 10 35 20 32 22 -3 3 -19 -2 -37 -11 -40 -20 -49 -15 -14 8 l26 17 -25
20 c-13 10 -29 19 -34 19 -5 0 -13 7 -16 16 -3 8 -10 12 -16 9 -5 -3 -10 1
-10 9 0 18 -10 25 -27 19z"/>
<path d="M2156 4932 c-3 -6 -1 -14 5 -17 14 -9 20 -2 10 14 -6 8 -11 9 -15 3z"/>
<path d="M6836 4932 c-3 -5 -2 -21 3 -34 8 -20 10 -21 16 -6 8 20 -9 56 -19
40z"/>
<path d="M6876 4918 c-9 -37 -8 -38 44 -38 28 0 50 5 50 10 0 10 -11 12 -65
12 -24 0 -25 1 -7 5 19 4 21 7 11 19 -16 20 -26 17 -33 -8z"/>
<path d="M1876 4863 c1 -16 2 -36 3 -46 0 -10 6 -15 12 -12 6 4 8 13 5 21 -4
11 1 13 21 8 18 -5 24 -4 19 5 -4 6 -13 11 -20 11 -8 0 -16 9 -19 20 -8 30
-23 24 -21 -7z"/>
<path d="M2630 4880 c0 -5 5 -10 10 -10 6 0 10 5 10 10 0 6 -4 10 -10 10 -5 0
-10 -4 -10 -10z"/>
<path d="M1992 4871 c-8 -4 -12 -18 -10 -29 2 -15 7 -19 16 -13 8 4 12 18 10
29 -2 15 -7 19 -16 13z"/>
<path d="M5777 4869 c7 -7 15 -10 18 -7 3 3 -2 9 -12 12 -14 6 -15 5 -6 -5z"/>
<path d="M6996 4851 c14 -15 54 -23 54 -10 0 5 -6 9 -14 9 -8 0 -23 3 -33 6
-13 5 -15 4 -7 -5z"/>
<path d="M2560 4841 c0 -5 7 -11 14 -14 10 -4 13 -1 9 9 -6 15 -23 19 -23 5z"/>
<path d="M7568 4843 c7 -3 16 -2 19 1 4 3 -2 6 -13 5 -11 0 -14 -3 -6 -6z"/>
<path d="M1808 4829 c-10 -5 -18 -15 -18 -21 0 -9 3 -9 12 0 17 17 26 15 31
-5 4 -17 5 -17 6 0 0 9 6 17 12 17 5 0 7 5 4 10 -8 13 -25 12 -47 -1z"/>
<path d="M2617 4813 c-5 -26 -4 -26 9 -8 13 18 14 18 14 0 0 -10 3 -16 6 -12
8 7 -5 47 -16 47 -4 0 -10 -12 -13 -27z"/>
<path d="M7270 4821 c0 -6 4 -13 10 -16 6 -3 7 1 4 9 -7 18 -14 21 -14 7z"/>
<path d="M5665 4809 c-4 -6 -5 -12 -2 -15 2 -3 7 2 10 11 7 17 1 20 -8 4z"/>
<path d="M2150 4791 c0 -6 -7 -11 -15 -11 -8 0 -15 -7 -15 -15 0 -8 -7 -15
-15 -15 -8 0 -15 9 -15 20 0 15 -7 20 -24 20 -14 0 -28 -5 -31 -10 -4 -6 -11
-8 -16 -4 -6 3 -16 -2 -23 -11 -10 -14 -17 -15 -32 -7 -16 8 -24 5 -44 -16
-14 -14 -19 -22 -12 -18 8 5 12 0 12 -13 0 -17 -5 -20 -27 -15 -16 2 -35 0
-43 -5 -17 -11 -17 -75 0 -95 7 -9 7 -16 1 -20 -5 -3 -12 0 -14 6 -4 10 -6 10
-6 0 -1 -14 46 -35 59 -27 4 3 10 -4 13 -16 7 -25 -3 -29 -74 -32 -56 -3 -113
-26 -122 -50 -7 -19 65 -6 127 23 25 11 53 20 63 20 17 0 218 69 276 95 l29
12 -26 5 c-14 3 -23 1 -20 -3 3 -5 -1 -9 -10 -9 -8 0 -22 -3 -32 -7 -12 -4
-15 -3 -10 5 10 17 -3 15 -21 -4 -9 -8 -22 -13 -29 -10 -7 3 -16 0 -20 -6 -5
-7 -2 -8 6 -3 8 5 11 4 7 -2 -3 -5 -20 -8 -37 -5 -18 2 -30 0 -30 -7 0 -6 -8
-11 -17 -10 -12 0 -14 2 -5 6 10 4 5 11 -14 24 l-28 18 27 7 c18 4 25 10 20
18 -12 17 -9 49 5 54 11 3 17 -15 13 -44 -1 -12 28 -28 37 -19 3 2 -1 12 -9
21 -24 29 -20 44 7 32 14 -7 23 -17 20 -23 -2 -7 7 -12 25 -12 15 0 26 4 23 9
-3 4 6 13 21 20 22 10 28 8 49 -11 14 -13 29 -20 35 -17 5 4 15 -2 20 -11 10
-17 12 -16 31 6 21 24 23 56 5 56 -6 0 -16 4 -24 9 -8 5 -28 12 -44 15 -23 5
-31 12 -32 31 -1 14 5 30 13 36 11 8 12 13 4 18 -7 4 -12 2 -12 -3z m-70 -116
c0 -13 -6 -22 -15 -22 -10 0 -15 11 -15 35 0 29 2 33 15 22 8 -7 15 -22 15
-35z m-196 -49 c-3 -9 -10 -13 -16 -10 -5 3 -4 12 3 20 15 18 22 13 13 -10z"/>
<path d="M1893 4783 c-21 -8 -15 -22 7 -16 11 3 20 9 20 14 0 10 -8 10 -27 2z"/>
<path d="M6680 4740 c0 -13 20 -13 40 0 12 8 9 10 -12 10 -16 0 -28 -4 -28
-10z"/>
<path d="M2315 4730 c3 -5 8 -10 11 -10 2 0 4 5 4 10 0 6 -5 10 -11 10 -5 0
-7 -4 -4 -10z"/>
<path d="M6470 4720 c-9 -6 -10 -10 -3 -10 6 0 15 5 18 10 8 12 4 12 -15 0z"/>
<path d="M898 4685 c2 -14 7 -23 10 -21 3 3 11 1 19 -6 18 -14 24 -7 16 20 -3
12 -9 19 -15 16 -5 -3 -15 -1 -22 5 -11 9 -12 6 -8 -14z"/>
<path d="M2359 4693 c-20 -3 -26 -10 -26 -29 0 -19 2 -22 13 -13 7 6 19 7 26
3 7 -4 10 -3 5 1 -4 5 0 17 10 27 9 10 12 17 7 17 -5 -1 -21 -4 -35 -6z"/>
<path d="M6317 4681 c-3 -14 0 -17 14 -14 11 3 19 12 19 19 0 21 -27 17 -33
-5z"/>
<path d="M6375 4690 c4 -6 11 -8 16 -5 14 9 11 15 -7 15 -8 0 -12 -5 -9 -10z"/>
<path d="M984 4672 c5 -16 3 -22 -7 -22 -8 0 -18 -11 -21 -25 -4 -16 -13 -25
-26 -25 -33 0 -23 -17 10 -18 26 -1 30 2 25 18 -4 11 1 23 13 32 29 21 33 35
15 49 -14 12 -15 11 -9 -9z"/>
<path d="M4372 4670 c-7 -11 -9 -20 -4 -20 10 0 32 22 32 32 0 15 -15 8 -28
-12z"/>
<path d="M6408 4668 c9 -9 15 -9 24 0 9 9 7 12 -12 12 -19 0 -21 -3 -12 -12z"/>
<path d="M2282 4658 c3 -7 13 -15 23 -17 17 -3 17 -2 3 13 -20 19 -31 21 -26
4z"/>
<path d="M1050 4650 c0 -5 4 -10 9 -10 6 0 13 5 16 10 3 6 -1 10 -9 10 -9 0
-16 -4 -16 -10z"/>
<path d="M4463 4644 c-3 -9 0 -19 6 -24 9 -5 4 -9 -13 -14 -17 -4 -26 -13 -26
-26 0 -11 4 -20 8 -20 22 0 72 33 77 51 12 37 -38 69 -52 33z"/>
<path d="M1005 4630 c-18 -19 -15 -30 15 -60 12 -12 40 -69 40 -82 0 -10 -3
-9 -10 2 -5 8 -10 11 -10 6 0 -6 -6 -2 -13 8 -12 17 -14 17 -20 2 -4 -9 -2
-16 2 -16 11 0 9 -19 -2 -37 -5 -8 -4 -13 2 -13 6 0 11 -7 11 -15 0 -17 19
-21 21 -5 1 6 2 15 3 22 0 6 7 13 14 16 7 2 11 -2 10 -8 -2 -7 3 -15 11 -18
10 -3 12 0 8 12 -4 9 -2 16 3 16 13 0 31 -36 22 -45 -4 -5 -2 -5 4 -2 7 4 14
-2 17 -14 7 -27 30 -20 37 12 4 14 13 23 23 23 20 -2 22 16 5 35 -11 11 -10
12 2 6 13 -8 13 -7 0 10 -14 17 -15 17 -18 -8 -2 -19 -9 -27 -23 -27 -10 0
-19 7 -19 15 0 8 -6 15 -14 15 -8 0 -17 11 -20 25 -4 14 -13 25 -22 25 -9 0
-14 7 -12 18 2 11 -3 17 -15 16 -13 -2 -16 3 -12 17 4 13 2 19 -6 17 -9 -2
-13 7 -13 25 1 32 2 32 -21 7z"/>
<path d="M3908 4643 c7 -3 16 -2 19 1 4 3 -2 6 -13 5 -11 0 -14 -3 -6 -6z"/>
<path d="M3985 4640 c3 -5 8 -10 11 -10 2 0 4 5 4 10 0 6 -5 10 -11 10 -5 0
-7 -4 -4 -10z"/>
<path d="M6445 4640 c3 -5 11 -10 16 -10 6 0 7 5 4 10 -3 6 -11 10 -16 10 -6
0 -7 -4 -4 -10z"/>
<path d="M882 4628 c5 -15 28 -18 29 -3 0 6 -7 12 -17 13 -10 3 -15 -1 -12
-10z"/>
<path d="M1235 4630 c3 -5 8 -10 11 -10 2 0 4 5 4 10 0 6 -5 10 -11 10 -5 0
-7 -4 -4 -10z"/>
<path d="M1512 4603 c-17 -19 -29 -39 -26 -45 3 -5 -2 -18 -12 -29 -9 -10 -15
-19 -13 -20 44 -9 82 2 59 16 -5 3 -10 11 -10 16 0 6 6 7 13 3 7 -5 6 0 -3 11
-13 15 -13 17 -1 14 18 -6 58 31 44 40 -6 3 -12 11 -14 18 -2 7 -18 -3 -37
-24z"/>
<path d="M4410 4620 c0 -5 7 -7 15 -4 8 4 15 8 15 10 0 2 -7 4 -15 4 -8 0 -15
-4 -15 -10z"/>
<path d="M4014 4601 c11 -11 23 -21 28 -21 14 0 -1 19 -25 31 -22 12 -22 12
-3 -10z"/>
<path d="M6780 4609 c0 -5 5 -7 10 -4 6 3 10 8 10 11 0 2 -4 4 -10 4 -5 0 -10
-5 -10 -11z"/>
<path d="M6815 4600 c3 -5 11 -10 16 -10 6 0 7 5 4 10 -3 6 -11 10 -16 10 -6
0 -7 -4 -4 -10z"/>
<path d="M805 4591 c-3 -5 -1 -12 5 -16 5 -3 10 1 10 9 0 18 -6 21 -15 7z"/>
<path d="M1091 4574 c0 -11 3 -14 6 -6 3 7 2 16 -1 19 -3 4 -6 -2 -5 -13z"/>
<path d="M870 4560 c0 -5 5 -10 11 -10 5 0 7 5 4 10 -3 6 -8 10 -11 10 -2 0
-4 -4 -4 -10z"/>
<path d="M4525 4555 c-5 -9 -23 -17 -40 -19 -16 -2 -30 -8 -29 -15 1 -6 2 -20
3 -32 1 -14 6 -19 16 -15 8 3 15 0 15 -6 0 -5 14 4 32 21 17 17 38 31 46 31 8
0 12 8 10 23 -4 27 -39 35 -53 12z"/>
<path d="M807 4530 c3 -11 17 -23 31 -27 30 -7 90 -46 107 -70 9 -12 14 -13
19 -4 10 16 -20 60 -48 71 -13 5 -26 15 -29 23 -3 8 -15 17 -27 20 -17 4 -20
2 -15 -11 5 -14 4 -14 -13 1 -24 22 -31 21 -25 -3z"/>
<path d="M750 4500 c0 -5 7 -10 16 -10 8 0 12 5 9 10 -3 6 -10 10 -16 10 -5 0
-9 -4 -9 -10z"/>
<path d="M1550 4499 c0 -7 -8 -18 -17 -26 -16 -13 -16 -14 9 -9 17 4 32 1 42
-9 17 -17 36 -20 36 -5 0 6 -5 10 -11 10 -5 0 -7 6 -3 13 4 6 4 9 -1 5 -5 -5
-14 1 -22 12 -16 22 -33 27 -33 9z"/>
<path d="M800 4480 c0 -5 5 -10 11 -10 5 0 7 5 4 10 -3 6 -8 10 -11 10 -2 0
-4 -4 -4 -10z"/>
<path d="M970 4480 c0 -6 7 -10 15 -10 8 0 15 2 15 4 0 2 -7 6 -15 10 -8 3
-15 1 -15 -4z"/>
<path d="M1490 4480 c0 -5 4 -10 9 -10 6 0 13 5 16 10 3 6 -1 10 -9 10 -9 0
-16 -4 -16 -10z"/>
<path d="M1670 4480 c-12 -8 -9 -10 13 -10 15 0 27 5 27 10 0 13 -20 13 -40 0z"/>
<path d="M4588 4474 c-4 -3 -14 -7 -25 -8 -10 -2 -24 -14 -31 -29 -13 -27 -48
-28 -38 -1 3 8 -1 14 -10 14 -11 0 -14 -10 -12 -44 3 -40 5 -43 23 -34 22 12
116 108 105 108 -4 0 -9 -3 -12 -6z"/>
<path d="M825 4449 c-11 -17 1 -21 15 -4 8 9 8 15 2 15 -6 0 -14 -5 -17 -11z"/>
<path d="M1514 4405 c-19 -14 -19 -14 3 -15 28 0 53 10 53 21 0 14 -34 11 -56
-6z"/>
<path d="M1015 4390 c-18 -7 -18 -9 -3 -15 23 -9 39 -3 30 11 -4 7 -15 8 -27
4z"/>
<path d="M1398 4375 c-6 -28 -1 -30 24 -11 13 10 15 15 6 24 -18 18 -25 15
-30 -13z"/>
<path d="M1448 4393 c7 -3 16 -2 19 1 4 3 -2 6 -13 5 -11 0 -14 -3 -6 -6z"/>
<path d="M1070 4366 c0 -9 7 -16 16 -16 9 0 14 5 12 12 -6 18 -28 21 -28 4z"/>
<path d="M770 4340 l-21 -30 21 0 c12 0 18 4 15 11 -4 5 1 19 11 30 9 10 12
19 6 19 -6 0 -20 -13 -32 -30z"/>
<path d="M900 4360 c0 -5 5 -10 10 -10 6 0 10 5 10 10 0 6 -4 10 -10 10 -5 0
-10 -4 -10 -10z"/>
<path d="M1019 4344 c-12 -14 -11 -16 5 -13 11 2 21 10 24 17 5 17 -13 15 -29
-4z"/>
<path d="M386 4337 c3 -10 9 -15 12 -12 3 3 0 11 -7 18 -10 9 -11 8 -5 -6z"/>
<path d="M818 4343 c6 -2 12 -11 12 -19 0 -8 7 -14 16 -14 11 0 14 5 10 16 -3
9 -6 18 -6 20 0 2 -10 4 -22 3 -13 0 -17 -3 -10 -6z"/>
<path d="M1151 4324 c0 -11 3 -14 6 -6 3 7 2 16 -1 19 -3 4 -6 -2 -5 -13z"/>
<path d="M920 4316 c0 -2 7 -6 15 -10 8 -3 15 -1 15 4 0 6 -7 10 -15 10 -8 0
-15 -2 -15 -4z"/>
<path d="M1102 4298 c-15 -19 -6 -28 30 -28 20 0 27 4 22 12 -5 8 -2 9 9 5 10
-4 17 -2 17 5 0 6 -11 8 -29 5 -17 -4 -31 -2 -33 4 -2 7 -8 6 -16 -3z"/>
<path d="M790 4290 c0 -5 5 -10 10 -10 6 0 10 5 10 10 0 6 -4 10 -10 10 -5 0
-10 -4 -10 -10z"/>
<path d="M891 4291 c-12 -7 -11 -12 1 -30 14 -20 15 -20 15 9 0 17 -1 30 -1
30 -1 0 -7 -4 -15 -9z"/>
<path d="M3175 4260 c-3 -5 -2 -10 4 -10 5 0 13 5 16 10 3 6 2 10 -4 10 -5 0
-13 -4 -16 -10z"/>
<path d="M845 4200 c3 -5 11 -10 16 -10 6 0 7 5 4 10 -3 6 -11 10 -16 10 -6 0
-7 -4 -4 -10z"/>
<path d="M618 4153 c7 -3 16 -2 19 1 4 3 -2 6 -13 5 -11 0 -14 -3 -6 -6z"/>
<path d="M595 4124 c20 -21 35 -22 35 -3 0 5 -8 9 -18 9 -10 0 -22 3 -27 8 -6
4 -1 -3 10 -14z"/>
<path d="M508 4133 c7 -3 16 -2 19 1 4 3 -2 6 -13 5 -11 0 -14 -3 -6 -6z"/>
<path d="M4920 4054 c0 -35 -6 -81 -14 -101 -24 -64 -28 -95 -14 -104 10 -7
10 -9 1 -9 -7 0 -13 -9 -13 -19 0 -11 -6 -22 -12 -24 -8 -3 -5 -6 6 -6 16 -1
18 -6 12 -42 -4 -23 -16 -53 -26 -67 -11 -13 -20 -33 -20 -43 0 -22 21 -69 31
-69 4 0 10 -7 13 -16 3 -8 2 -12 -4 -9 -10 6 -10 8 -41 -139 -11 -55 -25 -111
-31 -125 -5 -14 -12 -57 -14 -96 -3 -38 -7 -78 -9 -88 -6 -28 15 -87 30 -87
18 0 20 -27 3 -33 -10 -3 -8 -12 5 -36 11 -18 16 -35 13 -38 -3 -4 -6 -3 -6 2
0 4 -7 2 -15 -5 -8 -7 -15 -29 -15 -49 0 -24 -3 -32 -9 -22 -15 24 -35 -54
-22 -90 12 -36 4 -60 -44 -130 -19 -28 -35 -61 -35 -73 0 -11 -7 -34 -15 -50
-9 -16 -12 -32 -7 -35 5 -3 9 -23 10 -44 1 -20 6 -46 12 -57 14 -26 54 -66 74
-73 9 -4 16 -11 16 -17 0 -5 5 -10 10 -10 6 0 10 6 10 13 0 8 26 13 87 15 58
2 97 9 117 20 57 31 66 43 66 88 0 40 -3 44 -42 66 -62 34 -63 62 -3 89 32 14
44 24 37 32 -14 19 -12 57 2 57 8 0 16 9 19 20 4 17 1 18 -27 13 -17 -3 -36
-10 -43 -15 -18 -14 -37 0 -23 17 6 7 8 19 6 26 -16 52 -17 71 -2 66 11 -5 16
0 16 14 0 30 -18 59 -38 60 -12 0 -13 2 -3 6 19 8 51 41 51 53 0 6 -9 10 -20
10 -11 0 -23 8 -26 18 -3 9 -10 26 -16 37 -7 16 -3 33 16 71 64 128 126 354
97 354 -9 0 -91 -162 -105 -207 -4 -13 -12 -23 -17 -23 -12 0 -12 25 0 48 13
24 36 79 56 137 10 28 22 55 25 60 4 6 10 22 14 37 5 21 2 28 -14 33 -12 4
-28 1 -37 -6 -14 -12 -15 -10 -8 21 12 57 20 65 84 78 l60 13 -15 49 c-8 27
-12 60 -8 74 3 13 1 27 -5 30 -16 10 -14 36 3 36 7 0 16 8 18 18 4 15 -1 17
-35 13 -30 -2 -38 0 -35 10 3 8 -4 19 -16 26 -20 12 -19 12 10 13 16 0 34 -4
40 -9 17 -17 78 11 84 39 13 51 2 62 -51 55 -30 -4 -49 -3 -49 3 0 5 20 12 44
14 49 6 115 47 80 50 -11 0 -29 0 -40 -1 -12 -1 -34 3 -48 9 -23 9 -25 12 -14
30 7 11 21 20 30 20 21 0 24 -16 6 -24 -7 -3 -2 -4 11 -3 35 3 38 25 4 32 -15
4 -37 10 -48 15 -43 18 -92 33 -132 40 l-43 7 0 -63z m151 -314 c5 0 9 -13 9
-30 0 -16 -4 -30 -10 -30 -5 0 -10 9 -10 19 0 11 -9 23 -20 26 -11 4 -18 11
-14 16 3 6 13 8 21 5 8 -3 19 -6 24 -6z m-160 -671 c-17 -34 -31 -56 -31 -48
0 20 51 121 57 115 3 -3 -9 -33 -26 -67z"/>
<path d="M5460 3950 c0 -5 7 -10 15 -10 8 0 15 5 15 10 0 6 -7 10 -15 10 -8 0
-15 -4 -15 -10z"/>
<path d="M5510 3929 c0 -5 5 -7 10 -4 6 3 10 8 10 11 0 2 -4 4 -10 4 -5 0 -10
-5 -10 -11z"/>
<path d="M5465 3920 c3 -5 13 -10 21 -10 8 0 14 5 14 10 0 6 -9 10 -21 10 -11
0 -17 -4 -14 -10z"/>
<path d="M5770 3911 c0 -6 7 -11 15 -11 9 0 27 -7 41 -16 13 -9 27 -14 31 -10
3 3 1 6 -5 6 -7 0 -12 4 -12 9 0 6 12 6 32 0 18 -5 37 -9 43 -8 18 1 -39 21
-70 24 -16 2 -40 7 -52 10 -14 5 -23 3 -23 -4z"/>
<path d="M5490 3863 c1 -40 60 -62 233 -86 81 -12 90 -11 118 7 41 25 22 36
-44 24 -61 -12 -149 -3 -191 17 -16 8 -34 15 -40 15 -6 0 -22 9 -36 20 -31 24
-40 25 -40 3z"/>
<path d="M5806 3872 c-2 -4 -1 -14 3 -21 6 -10 10 -9 14 3 6 16 -8 32 -17 18z"/>
<path d="M5484 3785 c-4 -16 0 -34 12 -52 21 -30 28 -34 89 -39 22 -1 69 -7
105 -12 36 -5 68 -8 72 -5 4 2 5 -3 2 -11 -9 -23 17 -20 47 7 25 22 34 66 14
68 -5 0 -53 1 -105 2 -86 2 -101 5 -157 35 -34 17 -65 32 -67 32 -3 0 -8 -11
-12 -25z"/>
<path d="M5184 3785 c21 -16 32 -13 21 4 -3 6 -14 11 -23 11 -15 -1 -15 -2 2
-15z"/>
<path d="M6175 3790 c-3 -5 -1 -10 4 -10 6 0 11 5 11 10 0 6 -2 10 -4 10 -3 0
-8 -4 -11 -10z"/>
<path d="M6567 3708 c7 -8 10 -18 6 -21 -3 -4 -1 -7 6 -7 17 0 10 32 -9 38
-12 4 -13 3 -3 -10z"/>
<path d="M6207 3687 c-4 -12 62 -52 71 -43 3 3 1 6 -5 6 -5 0 -22 11 -36 24
-15 14 -28 19 -30 13z"/>
<path d="M6640 3671 c0 -28 3 -30 153 -80 85 -28 156 -51 159 -51 4 0 4 9 1
20 -3 12 0 20 8 20 21 0 5 9 -82 46 -73 31 -207 74 -231 74 -4 0 -8 -13 -8
-29z"/>
<path d="M2487 3651 c-22 -24 -27 -38 -27 -79 0 -27 7 -66 15 -85 l15 -36 42
22 43 23 -1 65 c0 48 -6 73 -20 92 -24 34 -33 33 -67 -2z"/>
<path d="M5520 3655 c0 -25 28 -43 77 -50 l38 -6 -44 21 c-24 11 -50 28 -57
38 -12 16 -13 16 -14 -3z"/>
<path d="M6210 3627 c0 -3 7 -21 15 -41 12 -29 20 -36 35 -31 21 7 85 -17 112
-42 10 -9 18 -13 18 -9 0 4 10 0 22 -8 12 -9 37 -16 55 -16 19 0 36 -6 41 -16
7 -12 17 -15 37 -10 15 4 25 10 21 13 -3 4 1 18 10 31 14 21 14 24 2 19 -11
-4 -14 1 -11 17 5 23 4 23 -52 13 -93 -17 -239 18 -290 70 -8 8 -15 12 -15 10z"/>
<path d="M6565 3618 c-22 -5 -73 -8 -114 -6 -65 3 -70 2 -44 -8 60 -25 213
-13 213 17 0 10 -1 10 -55 -3z"/>
<path d="M6957 3614 c3 -7 9 -14 14 -14 14 0 10 17 -5 23 -10 4 -13 1 -9 -9z"/>
<path d="M2590 3594 c0 -14 12 -27 35 -40 33 -18 50 -42 21 -31 -8 3 -19 -8
-29 -29 -18 -36 -13 -45 9 -16 13 15 13 14 5 -8 -5 -14 -14 -24 -21 -22 -7 1
-5 -6 4 -20 9 -12 16 -34 17 -48 0 -14 3 -19 6 -12 2 6 9 9 14 6 6 -3 2 -12
-8 -20 -17 -13 -17 -15 1 -29 24 -18 33 -13 41 26 4 16 15 35 26 42 20 13 26
37 8 37 -6 0 -8 9 -4 20 4 12 2 26 -3 33 -25 32 -22 47 13 64 19 9 35 20 35
24 0 8 -53 17 -120 22 -19 1 -38 7 -42 12 -4 6 -8 1 -8 -11z"/>
<path d="M5670 3590 c20 -13 100 -13 100 0 0 6 -26 10 -57 10 -41 0 -54 -3
-43 -10z"/>
<path d="M5520 3560 c0 -14 7 -20 21 -20 15 0 19 4 15 16 -3 9 -6 18 -6 20 0
2 -7 4 -15 4 -8 0 -15 -9 -15 -20z"/>
<path d="M7185 3560 c11 -5 27 -9 35 -9 13 -1 13 0 0 9 -8 5 -24 9 -35 9 l-20
0 20 -9z"/>
<path d="M7258 3543 c7 -3 16 -2 19 1 4 3 -2 6 -13 5 -11 0 -14 -3 -6 -6z"/>
<path d="M2165 3504 c-52 -31 -52 -33 1 -30 27 2 49 4 49 6 0 1 7 3 15 5 32 7
73 26 67 31 -16 16 -98 9 -132 -12z"/>
<path d="M6980 3499 c0 -11 4 -18 10 -14 5 3 7 12 3 20 -7 21 -13 19 -13 -6z"/>
<path d="M5517 3493 c4 -11 3 -14 -5 -9 -7 4 -15 0 -18 -9 -6 -13 -9 -14 -16
-3 -5 8 -6 2 -2 -17 12 -55 66 -86 88 -52 9 14 8 20 -4 28 -11 8 -9 9 13 5 36
-8 34 -1 -8 40 -38 37 -58 44 -48 17z"/>
<path d="M7420 3500 c-13 -8 -12 -10 3 -10 9 0 17 5 17 10 0 12 -1 12 -20 0z"/>
<path d="M7415 3470 c-8 -13 5 -13 25 0 13 8 13 10 -2 10 -9 0 -20 -4 -23 -10z"/>
<path d="M2070 3450 c-19 -10 -62 -32 -95 -48 -64 -31 -79 -44 -89 -77 -5 -16
-1 -21 14 -21 11 0 20 4 20 8 0 4 7 5 16 1 12 -4 11 -8 -7 -17 -12 -6 -24 -18
-26 -26 -3 -11 -2 -12 4 -3 6 9 18 10 38 4 17 -5 24 -10 18 -10 -20 -2 -15
-17 10 -28 17 -8 31 -6 60 8 20 11 37 26 37 34 0 26 18 25 50 -3 23 -21 38
-28 57 -24 39 7 76 29 64 36 -14 9 -129 29 -158 29 -17 -1 -23 5 -23 20 0 11
-10 31 -22 44 -12 13 -18 26 -15 30 4 3 15 -3 26 -15 52 -60 178 -58 210 3 25
48 24 55 -6 54 -27 0 -87 7 -128 15 -11 3 -36 -4 -55 -14z"/>
<path d="M7040 3450 c0 -6 7 -10 15 -10 8 0 15 2 15 4 0 2 -7 6 -15 10 -8 3
-15 1 -15 -4z"/>
<path d="M7371 3408 c-19 -5 -65 -8 -103 -6 -37 2 -68 0 -68 -4 0 -5 4 -8 9
-8 5 0 44 -5 87 -11 88 -12 114 -8 132 21 10 17 10 20 -5 19 -10 0 -33 -5 -52
-11z"/>
<path d="M7441 3393 c-16 -36 -2 -48 57 -48 26 0 52 -3 57 -6 6 -3 22 -9 38
-13 15 -3 27 -13 27 -20 0 -12 28 -25 53 -26 4 0 7 15 7 34 l0 34 -105 36
c-58 20 -109 36 -113 36 -5 0 -14 -12 -21 -27z"/>
<path d="M6979 3393 c-10 -12 -11 -17 -2 -20 7 -2 9 -12 6 -21 -4 -14 -3 -14
5 -3 9 13 13 13 28 0 9 -8 19 -13 21 -11 1 1 6 2 11 1 4 -1 18 0 32 0 14 1 52
-12 85 -29 33 -17 82 -34 109 -37 36 -5 50 -11 54 -25 5 -21 46 -25 59 -5 4 6
8 23 9 37 0 14 4 32 7 40 6 13 -11 15 -120 15 -127 0 -128 0 -205 38 -42 20
-78 37 -81 37 -3 0 -11 -7 -18 -17z"/>
<path d="M6445 3390 c3 -5 19 -10 36 -10 16 0 29 5 29 10 0 6 -16 10 -36 10
-21 0 -33 -4 -29 -10z"/>
<path d="M2606 3345 c4 -8 8 -15 10 -15 2 0 4 7 4 15 0 8 -4 15 -10 15 -5 0
-7 -7 -4 -15z"/>
<path d="M5503 3303 c-3 -10 -8 -22 -10 -28 -3 -5 3 -1 11 9 16 20 21 36 11
36 -3 0 -8 -8 -12 -17z"/>
<path d="M5285 3250 c10 -11 20 -18 23 -15 7 6 -18 35 -31 35 -5 0 -2 -9 8
-20z"/>
<path d="M6180 3259 c0 -8 7 -24 15 -35 18 -24 19 -7 0 26 -9 16 -14 19 -15 9z"/>
<path d="M5522 3240 c0 -14 2 -19 5 -12 2 6 2 18 0 25 -3 6 -5 1 -5 -13z"/>
<path d="M1570 3199 c-27 -14 -47 -29 -44 -32 14 -13 188 28 179 43 -3 5 0 10
6 12 6 2 -12 3 -41 3 -35 0 -66 -8 -100 -26z"/>
<path d="M2110 3219 c0 -4 6 -10 13 -12 7 -3 5 -6 -5 -6 -39 -2 -12 -121 28
-121 8 0 14 9 14 19 0 11 8 22 18 25 15 5 18 15 17 49 -2 41 -2 42 -43 48 -23
3 -42 2 -42 -2z"/>
<path d="M6421 3204 c-25 -32 -26 -44 -6 -44 8 0 15 4 15 10 0 17 51 24 62 9
8 -11 9 -10 4 4 -3 9 0 17 6 17 7 0 6 5 -2 15 -19 23 -56 18 -79 -11z"/>
<path d="M5190 3198 c0 -15 8 -18 44 -18 62 0 65 14 5 26 -44 10 -49 9 -49 -8z"/>
<path d="M5501 3187 c-6 -16 -11 -32 -11 -37 0 -5 -4 -10 -9 -12 -4 -1 -11
-21 -14 -43 -6 -36 -5 -37 5 -15 36 78 49 113 45 123 -3 7 -10 -1 -16 -16z"/>
<path d="M2980 3185 c0 -8 2 -15 4 -15 2 0 6 7 10 15 3 8 1 15 -4 15 -6 0 -10
-7 -10 -15z"/>
<path d="M6365 3190 c27 -12 35 -12 35 0 0 6 -12 10 -27 9 -25 0 -26 -1 -8 -9z"/>
<path d="M7295 3170 c-3 -5 3 -10 15 -10 12 0 18 5 15 10 -3 6 -10 10 -15 10
-5 0 -12 -4 -15 -10z"/>
<path d="M1445 3134 c-59 -29 -76 -44 -51 -44 9 0 14 -5 11 -10 -9 -14 93 -60
133 -60 43 0 84 22 108 57 35 53 30 60 -39 68 -34 3 -73 8 -87 10 -14 2 -47
-7 -75 -21z"/>
<path d="M5540 3098 c0 -19 2 -20 10 -8 13 19 13 30 0 30 -5 0 -10 -10 -10
-22z"/>
<path d="M5887 3084 c-7 -20 -38 -30 -34 -11 1 5 -3 11 -8 13 -7 3 -10 -28 -7
-93 4 -133 4 -133 30 -90 12 21 17 35 11 31 -7 -4 -9 -2 -5 7 3 8 9 21 12 31
3 9 14 18 25 21 22 6 26 27 4 27 -8 0 -15 5 -15 10 0 6 7 10 15 10 8 0 15 7
15 15 0 8 -6 15 -14 15 -8 0 -16 8 -18 18 -4 15 -5 14 -11 -4z"/>
<path d="M6550 3078 c0 -20 1 -21 20 -3 11 10 20 20 20 22 0 1 -9 3 -20 3 -14
0 -20 -7 -20 -22z"/>
<path d="M5496 3025 c-15 -33 -33 -71 -40 -85 -24 -54 -35 -54 -29 2 4 40 3
50 -6 42 -6 -5 -13 -34 -15 -63 -3 -41 -1 -51 10 -47 8 3 14 1 14 -4 0 -6 4
-10 9 -10 11 0 83 159 76 170 -3 4 0 10 6 12 6 2 9 13 7 23 -3 15 -11 3 -32
-40z"/>
<path d="M5061 3058 c-1 -9 -5 -20 -11 -23 -6 -3 -7 1 -4 12 3 10 -4 2 -15
-17 -21 -36 -27 -70 -13 -70 14 0 55 87 49 102 -4 9 -6 8 -6 -4z"/>
<path d="M2102 3045 c-23 -12 -23 -12 13 -29 39 -19 55 -15 55 14 0 14 -5 17
-22 12 -14 -3 -19 -2 -14 6 9 15 -2 14 -32 -3z"/>
<path d="M5960 3050 c0 -5 5 -10 10 -10 6 0 10 5 10 10 0 6 -4 10 -10 10 -5 0
-10 -4 -10 -10z"/>
<path d="M5436 3023 c-6 -14 -5 -15 5 -6 7 7 10 15 7 18 -3 3 -9 -2 -12 -12z"/>
<path d="M6007 3033 c-4 -3 -7 -13 -7 -22 1 -13 3 -13 11 2 11 19 8 33 -4 20z"/>
<path d="M1430 3010 c0 -30 22 -59 49 -65 16 -3 32 -13 35 -20 6 -16 -10 -30
-18 -16 -4 5 -13 8 -22 7 -23 -3 -28 -89 -9 -126 24 -46 20 -70 -12 -71 -16
-1 -32 -1 -37 0 -21 4 17 -27 58 -48 35 -18 53 -22 85 -16 47 8 52 25 16 53
-14 11 -25 22 -25 24 0 3 11 18 25 34 20 24 24 35 18 69 -3 22 -14 49 -24 60
-18 20 -17 21 27 44 24 13 43 25 42 27 -2 1 -36 7 -75 12 -40 6 -86 17 -103
25 -16 9 -30 12 -30 7z"/>
<path d="M6226 3005 c-9 -9 -16 -20 -16 -25 0 -5 -3 -16 -7 -26 -11 -28 15 -7
33 28 18 35 13 46 -10 23z"/>
<path d="M5976 2995 c4 -9 -3 -19 -19 -26 -32 -14 -45 -70 -24 -102 7 -12 24
-48 36 -80 18 -43 21 -60 12 -71 -8 -10 -7 -17 7 -29 16 -15 17 -11 16 71 -1
114 -15 252 -25 252 -5 0 -6 -7 -3 -15z"/>
<path d="M6920 2974 c0 -16 -3 -40 -7 -54 -6 -22 -5 -23 8 -10 23 22 28 54 13
75 -13 17 -14 17 -14 -11z"/>
<path d="M7200 2982 c0 -6 8 -13 18 -15 9 -3 1 -5 -18 -6 l-35 -1 38 -20 c20
-11 44 -20 52 -20 9 0 18 -6 21 -14 3 -8 13 -12 25 -9 26 7 25 44 -2 67 -25
21 -99 35 -99 18z"/>
<path d="M1247 2953 c-4 -3 -7 -17 -7 -31 0 -20 3 -22 14 -13 8 7 14 21 13 32
-1 20 -9 24 -20 12z"/>
<path d="M5000 2931 c0 -6 5 -13 10 -16 6 -3 10 1 10 9 0 9 -4 16 -10 16 -5 0
-10 -4 -10 -9z"/>
<path d="M2126 2921 c-4 -7 -5 -15 -2 -18 9 -9 19 4 14 18 -4 11 -6 11 -12 0z"/>
<path d="M1287 2896 c-4 -10 -1 -13 9 -9 15 6 19 23 5 23 -5 0 -11 -7 -14 -14z"/>
<path d="M6902 2850 c0 -14 2 -19 5 -12 2 6 2 18 0 25 -3 6 -5 1 -5 -13z"/>
<path d="M6550 2845 c0 -8 7 -15 15 -15 8 0 15 -4 15 -10 0 -12 49 -45 56 -38
11 12 -11 40 -47 59 -33 16 -39 17 -39 4z"/>
<path d="M6830 2841 c-6 -13 -16 -17 -30 -14 -16 4 -23 0 -27 -16 -4 -16 -10
-20 -22 -16 -9 4 -36 8 -60 10 l-43 4 21 -21 c15 -13 30 -18 46 -14 12 3 36
-1 51 -9 34 -18 60 -19 70 -4 3 6 15 9 25 6 11 -3 19 -1 19 4 0 5 -5 9 -11 9
-8 0 -8 5 1 15 10 12 9 20 -4 40 -20 30 -22 30 -36 6z"/>
<path d="M870 2831 c-36 -7 -150 -56 -150 -65 0 -14 126 8 182 31 30 13 36 19
27 30 -6 7 -14 12 -18 12 -3 -1 -22 -4 -41 -8z"/>
<path d="M5430 2821 c0 -5 5 -13 10 -16 6 -3 10 -2 10 4 0 5 -4 13 -10 16 -5
3 -10 2 -10 -4z"/>
<path d="M5472 2784 c2 -9 13 -20 26 -25 21 -8 22 -8 6 16 -18 28 -37 33 -32
9z"/>
<path d="M7647 2773 c-2 -5 -7 -25 -11 -45 -4 -21 -17 -50 -30 -65 -12 -15
-26 -35 -29 -43 -26 -54 -55 -96 -75 -105 -26 -11 -28 -23 -7 -31 20 -8 19
-30 -3 -62 -11 -15 -26 -42 -35 -59 -14 -31 -14 -33 1 -33 12 -1 10 -5 -8 -15
-22 -12 -23 -14 -7 -20 25 -10 21 -25 -8 -25 -14 0 -24 -3 -24 -7 4 -22 -3
-31 -26 -37 -18 -5 -23 -11 -18 -24 3 -9 3 -14 -2 -10 -9 8 -35 -16 -35 -32 0
-7 -7 -10 -17 -6 -15 5 -15 4 1 -9 11 -8 27 -15 36 -15 27 0 42 -47 34 -106
-4 -39 -11 -55 -24 -59 -10 -3 -24 -13 -31 -21 -10 -13 -10 -17 2 -25 20 -12
69 -11 69 2 0 5 -5 7 -11 3 -8 -4 -7 0 1 15 6 12 15 19 20 16 5 -3 12 0 15 6
10 15 45 160 45 186 0 12 12 30 29 42 35 25 45 26 61 6 9 -10 9 -15 1 -15 -6
0 -11 -9 -11 -19 0 -15 -8 -21 -32 -23 -24 -2 -32 -8 -35 -28 -4 -30 5 -59 15
-44 4 5 31 25 60 43 46 30 51 35 36 46 -23 16 -11 49 15 40 16 -5 20 1 26 37
4 23 16 66 26 97 16 46 19 84 19 253 0 166 -2 198 -14 198 -8 0 -17 -3 -19 -7z
m-79 -533 c6 0 14 -4 17 -10 4 -6 -6 -7 -25 -4 -22 5 -36 2 -50 -11 -23 -21
-35 -15 -26 12 3 10 5 22 5 27 -2 21 27 24 46 6 12 -11 26 -20 33 -20z"/>
<path d="M5799 2748 c-10 -18 -9 -20 6 -15 9 4 21 7 26 7 15 0 10 17 -6 24 -9
3 -19 -3 -26 -16z"/>
<path d="M5440 2756 c0 -11 39 -50 45 -44 3 2 -6 15 -20 28 -14 13 -25 20 -25
16z"/>
<path d="M627 2725 l-48 -26 20 -27 c23 -33 98 -72 137 -72 50 1 109 18 119
36 6 9 20 31 32 50 16 24 19 35 10 42 -7 5 -59 12 -117 16 -99 6 -108 5 -153
-19z"/>
<path d="M570 2661 c0 -12 5 -21 10 -21 6 0 10 6 10 14 0 8 -4 18 -10 21 -5 3
-10 -3 -10 -14z"/>
<path d="M5792 2656 c7 -8 15 -12 17 -11 5 6 -10 25 -20 25 -5 0 -4 -6 3 -14z"/>
<path d="M480 2630 c0 -5 7 -7 15 -4 8 4 15 8 15 10 0 2 -7 4 -15 4 -8 0 -15
-4 -15 -10z"/>
<path d="M517 2613 c-4 -3 -7 -11 -7 -17 0 -6 5 -5 12 2 6 6 9 14 7 17 -3 3
-9 2 -12 -2z"/>
<path d="M5450 2610 c0 -5 7 -10 15 -10 8 0 15 5 15 10 0 6 -7 10 -15 10 -8 0
-15 -4 -15 -10z"/>
<path d="M5785 2610 c3 -5 8 -10 11 -10 2 0 4 5 4 10 0 6 -5 10 -11 10 -5 0
-7 -4 -4 -10z"/>
<path d="M1488 2588 c-7 -21 3 -108 13 -108 5 0 9 11 9 25 0 18 7 28 25 35 30
11 32 26 5 40 -15 8 -20 8 -20 -2 -1 -8 -6 -7 -14 5 -10 13 -15 14 -18 5z"/>
<path d="M540 2580 c0 -5 6 -10 14 -10 8 0 18 5 21 10 3 6 -3 10 -14 10 -12 0
-21 -4 -21 -10z"/>
<path d="M663 2565 c4 -22 -1 -30 -24 -44 -16 -9 -29 -19 -29 -23 0 -12 10 -9
39 11 26 19 28 19 65 2 33 -16 35 -19 17 -24 -12 -3 -21 0 -22 6 0 7 -4 3 -9
-8 -7 -17 -9 -17 -9 -2 -1 9 -6 17 -11 17 -6 0 -8 -16 -5 -37 2 -21 7 -62 10
-92 3 -30 11 -63 16 -73 13 -24 -15 -36 -42 -19 -31 19 -22 -7 16 -46 41 -42
106 -55 140 -27 14 11 16 18 7 21 -6 3 -10 9 -7 14 3 4 -6 11 -20 15 -17 4
-24 11 -21 20 3 8 1 14 -5 14 -6 0 -7 5 -4 10 3 6 14 10 24 10 22 0 56 46 41
55 -7 4 -7 13 0 25 17 32 11 57 -19 83 l-30 25 29 6 c16 3 38 13 49 23 28 24
11 33 -65 33 -34 0 -78 7 -99 16 l-38 15 6 -26z"/>
<path d="M369 2567 c-9 -7 -15 -22 -14 -34 2 -33 15 -41 15 -11 0 15 9 32 23
41 15 11 17 16 7 16 -8 0 -22 -5 -31 -12z"/>
<path d="M5406 2557 c3 -10 9 -15 12 -12 3 3 0 11 -7 18 -10 9 -11 8 -5 -6z"/>
<path d="M389 2534 c-12 -32 -7 -39 18 -25 10 6 12 11 6 11 -19 0 -16 20 3 20
8 0 12 5 9 10 -11 17 -25 11 -36 -16z"/>
<path d="M5380 2553 c0 -6 7 -18 15 -27 16 -16 21 -51 6 -41 -15 9 -17 -57 -3
-87 8 -17 22 -28 33 -28 11 0 28 -4 37 -9 9 -4 31 -11 47 -15 l30 -8 -29 25
c-26 22 -27 25 -10 30 13 3 9 5 -11 6 -25 1 -27 3 -13 12 13 7 30 5 60 -5 24
-8 36 -15 28 -16 -12 0 -11 -3 3 -11 22 -13 32 -6 24 16 -4 8 -17 15 -31 15
-13 0 -26 4 -28 8 -1 5 -16 15 -33 23 -16 8 -39 29 -50 46 -11 18 -25 32 -32
33 -6 0 -19 10 -27 22 -9 12 -16 17 -16 11z"/>
<path d="M308 2533 c6 -2 18 -2 25 0 6 3 1 5 -13 5 -14 0 -19 -2 -12 -5z"/>
<path d="M450 2536 c0 -10 52 -36 62 -30 6 4 -3 12 -22 20 -34 15 -40 16 -40
10z"/>
<path d="M105 2480 c-3 -6 1 -7 9 -4 18 7 21 14 7 14 -6 0 -13 -4 -16 -10z"/>
<path d="M440 2480 c-9 -6 -10 -10 -3 -10 6 0 15 5 18 10 8 12 4 12 -15 0z"/>
<path d="M6781 2480 c-8 -4 -14 -25 -15 -46 -1 -33 -4 -39 -23 -38 -19 0 -20
-2 -10 -19 7 -11 17 -28 23 -39 14 -23 20 -16 29 35 4 20 11 40 16 43 11 7 12
61 1 68 -4 2 -14 1 -21 -4z"/>
<path d="M340 2464 c0 -8 5 -12 10 -9 6 3 10 10 10 16 0 5 -4 9 -10 9 -5 0
-10 -7 -10 -16z"/>
<path d="M400 2458 c0 -9 5 -20 10 -23 8 -5 7 -11 -1 -21 -18 -21 -5 -17 23 9
14 12 34 27 44 34 15 9 11 10 -21 3 -28 -6 -42 -5 -47 3 -5 8 -8 7 -8 -5z"/>
<path d="M6508 2463 c7 -3 16 -2 19 1 4 3 -2 6 -13 5 -11 0 -14 -3 -6 -6z"/>
<path d="M1480 2450 c0 -5 5 -10 10 -10 6 0 10 5 10 10 0 6 -4 10 -10 10 -5 0
-10 -4 -10 -10z"/>
<path d="M6472 2430 c2 -7 23 -23 46 -36 l43 -24 -23 30 c-12 16 -25 30 -29
30 -4 0 -15 3 -25 7 -11 4 -15 2 -12 -7z"/>
<path d="M5675 2420 c-3 -5 -1 -10 4 -10 6 0 11 5 11 10 0 6 -2 10 -4 10 -3 0
-8 -4 -11 -10z"/>
<path d="M340 2396 c0 -9 5 -16 10 -16 6 0 10 4 10 9 0 6 -4 13 -10 16 -5 3
-10 -1 -10 -9z"/>
<path d="M373 2379 c-2 -17 1 -18 12 -9 8 7 12 16 9 21 -9 16 -20 10 -21 -12z"/>
<path d="M290 2369 c0 -5 5 -7 10 -4 6 3 10 8 10 11 0 2 -4 4 -10 4 -5 0 -10
-5 -10 -11z"/>
<path d="M6651 2366 c-10 -12 -7 -16 11 -22 12 -4 40 -18 61 -32 31 -21 40
-23 50 -12 10 10 9 12 -5 7 -17 -6 -22 2 -19 30 3 26 -81 50 -98 29z"/>
<path d="M5313 2335 c-6 -22 -14 -59 -17 -82 -6 -39 -4 -43 28 -62 18 -12 39
-21 46 -21 6 0 26 -6 43 -14 18 -8 83 -34 145 -57 137 -52 146 -50 150 38 l3
60 -41 12 c-23 7 -58 21 -78 32 -19 11 -60 30 -91 41 -31 11 -60 24 -65 29 -6
5 -20 9 -31 9 -12 0 -25 3 -29 8 -4 4 -12 8 -17 8 -5 1 -13 2 -18 3 -5 0 -11
9 -14 19 -2 10 -8 2 -14 -23z"/>
<path d="M335 2350 c-3 -5 -2 -10 4 -10 5 0 13 5 16 10 3 6 2 10 -4 10 -5 0
-13 -4 -16 -10z"/>
<path d="M5688 2343 c7 -3 16 -2 19 1 4 3 -2 6 -13 5 -11 0 -14 -3 -6 -6z"/>
<path d="M6580 2266 c0 -2 7 -7 16 -10 8 -3 12 -2 9 4 -6 10 -25 14 -25 6z"/>
<path d="M6228 2163 c7 -3 16 -2 19 1 4 3 -2 6 -13 5 -11 0 -14 -3 -6 -6z"/>
<path d="M6388 2163 c7 -3 16 -2 19 1 4 3 -2 6 -13 5 -11 0 -14 -3 -6 -6z"/>
<path d="M6108 2148 c9 -9 15 -9 24 0 9 9 7 12 -12 12 -19 0 -21 -3 -12 -12z"/>
<path d="M470 2133 c0 -5 10 -18 23 -29 l22 -19 -20 25 c-11 14 -21 27 -22 29
-2 2 -3 0 -3 -6z"/>
<path d="M6332 2120 c17 -11 53 -9 64 3 4 4 -13 7 -37 7 -33 -1 -40 -3 -27
-10z"/>
<path d="M715 2098 c-2 -7 -6 -37 -10 -65 -6 -56 -1 -62 35 -43 24 13 46 50
29 50 -6 0 -13 -9 -16 -20 -4 -16 -8 -18 -20 -9 -12 10 -10 16 12 39 24 25 25
29 10 44 -20 19 -34 21 -40 4z"/>
<path d="M7260 2091 c0 -22 35 -51 62 -51 26 0 22 13 -9 36 -49 35 -53 37 -53
15z"/>
<path d="M530 2080 c0 -6 7 -10 15 -10 8 0 15 2 15 4 0 2 -7 6 -15 10 -8 3
-15 1 -15 -4z"/>
<path d="M5966 2043 c-11 -81 -15 -77 112 -138 151 -74 254 -115 286 -115 33
0 56 35 56 87 0 33 -3 42 -17 41 -10 0 -31 5 -48 12 -16 7 -36 14 -43 16 -8 1
-22 10 -31 18 -10 9 -23 16 -29 16 -7 0 -12 5 -12 10 0 6 -7 10 -15 10 -9 0
-27 7 -40 16 -14 9 -25 13 -25 9 0 -4 -6 -3 -13 3 -7 6 -43 16 -80 23 -37 7
-67 16 -67 20 0 4 -6 9 -14 12 -10 4 -15 -7 -20 -40z"/>
<path d="M6273 2073 c9 -2 23 -2 30 0 6 3 -1 5 -18 5 -16 0 -22 -2 -12 -5z"/>
<path d="M6325 2070 c-3 -6 5 -10 19 -10 14 0 28 5 31 10 3 6 -5 10 -19 10
-14 0 -28 -4 -31 -10z"/>
<path d="M4880 2045 c0 -13 35 -27 44 -17 14 14 4 30 -19 30 -14 0 -25 -6 -25
-13z"/>
<path d="M7496 2025 c-11 -8 -15 -15 -9 -15 6 0 16 7 23 15 16 19 11 19 -14 0z"/>
<path d="M1897 2003 c-3 -5 -8 -23 -12 -40 l-7 -33 26 23 c20 17 22 23 10 25
-9 2 -13 10 -10 18 6 15 0 19 -7 7z"/>
<path d="M711 1954 c0 -11 3 -14 6 -6 3 7 2 16 -1 19 -3 4 -6 -2 -5 -13z"/>
<path d="M1356 1862 c-2 -4 -1 -23 4 -42 l8 -35 1 43 c1 41 -3 50 -13 34z"/>
<path d="M7070 1853 c0 -15 57 -43 74 -37 20 8 21 34 2 34 -7 0 -28 3 -45 6
-17 4 -31 2 -31 -3z"/>
<path d="M6707 1788 c-3 -9 -8 -35 -12 -59 -5 -36 -3 -47 12 -60 19 -16 113
-56 203 -85 30 -10 69 -28 87 -41 17 -13 37 -23 44 -23 7 0 36 -8 66 -17 52
-16 54 -16 73 3 16 16 25 58 21 102 -1 7 -15 12 -33 12 -18 0 -46 9 -63 20
-16 11 -38 20 -47 20 -10 0 -18 3 -18 8 0 8 -70 32 -94 32 -8 0 -16 5 -18 10
-2 6 -18 13 -37 15 -65 8 -144 37 -161 57 -14 18 -18 19 -23 6z"/>
<path d="M7113 1788 c-2 -5 10 -8 26 -8 17 0 31 3 31 8 0 4 -12 7 -26 7 -14 0
-28 -3 -31 -7z"/>
<path d="M5106 1763 c-9 -9 22 -33 43 -33 12 0 21 -4 21 -10 0 -5 -7 -10 -16
-10 -8 0 -12 -4 -9 -10 3 -5 17 -10 30 -10 13 0 25 -3 28 -7 2 -5 2 -2 0 5 -1
8 -3 22 -3 33 0 11 -7 19 -17 19 -10 0 -30 6 -45 14 -15 8 -29 12 -32 9z"/>
<path d="M2968 1753 c-10 -2 -18 -9 -18 -14 0 -6 4 -8 9 -5 5 4 12 0 14 -6 3
-8 6 -6 6 5 1 10 5 16 11 12 5 -3 7 -12 3 -20 -8 -23 25 -18 37 5 8 16 8 18
-4 14 -8 -3 -17 -1 -21 5 -6 11 -9 12 -37 4z"/>
<path d="M6188 1523 c7 -3 16 -2 19 1 4 3 -2 6 -13 5 -11 0 -14 -3 -6 -6z"/>
<path d="M7506 1458 c-3 -13 -6 -40 -6 -61 0 -38 0 -38 85 -77 46 -22 87 -40
90 -40 3 0 5 33 5 73 l0 73 -45 12 c-25 7 -54 12 -64 12 -10 0 -24 7 -31 15
-17 21 -27 19 -34 -7z"/>
<path d="M405 1340 c-3 -6 1 -7 9 -4 18 7 21 14 7 14 -6 0 -13 -4 -16 -10z"/>
<path d="M3060 1340 c0 -5 5 -10 10 -10 6 0 10 5 10 10 0 6 -4 10 -10 10 -5 0
-10 -4 -10 -10z"/>
<path d="M505 1310 c-28 -31 -12 -34 42 -6 l48 25 -36 1 c-24 0 -42 -7 -54
-20z"/>
<path d="M416 1277 c3 -10 9 -15 12 -12 3 3 0 11 -7 18 -10 9 -11 8 -5 -6z"/>
<path d="M1360 1240 c0 -5 5 -10 11 -10 5 0 7 5 4 10 -3 6 -8 10 -11 10 -2 0
-4 -4 -4 -10z"/>
<path d="M3160 1106 c0 -8 5 -18 10 -21 6 -3 10 3 10 14 0 12 -4 21 -10 21 -5
0 -10 -6 -10 -14z"/>
<path d="M5385 1030 c3 -5 8 -10 11 -10 2 0 4 5 4 10 0 6 -5 10 -11 10 -5 0
-7 -4 -4 -10z"/>
<path d="M5035 1010 c3 -5 8 -10 11 -10 2 0 4 5 4 10 0 6 -5 10 -11 10 -5 0
-7 -4 -4 -10z"/>
<path d="M5400 995 c0 -8 -9 -15 -20 -15 -11 0 -20 -4 -20 -10 0 -5 5 -10 11
-10 6 0 3 -7 -6 -16 -15 -15 -17 -15 -29 1 -7 10 -11 27 -8 37 7 27 -27 23
-38 -4 -5 -13 -9 -18 -9 -11 -1 7 -8 10 -17 6 -20 -7 -11 -16 52 -47 50 -25
84 -35 54 -16 -20 12 -6 24 48 39 48 13 52 23 20 45 -28 20 -38 20 -38 1z m40
-25 c0 -5 -8 -10 -17 -10 -15 0 -16 2 -3 10 19 12 20 12 20 0z"/>
<path d="M7472 940 c0 -14 2 -19 5 -12 2 6 2 18 0 25 -3 6 -5 1 -5 -13z"/>
<path d="M5448 873 c7 -3 16 -2 19 1 4 3 -2 6 -13 5 -11 0 -14 -3 -6 -6z"/>
<path d="M7446 852 c-5 -17 -13 -21 -24 -16 -10 3 -27 9 -39 11 -19 4 -23 1
-23 -19 0 -13 -6 -30 -12 -37 -8 -8 -8 -11 -2 -8 7 4 17 0 24 -8 7 -8 18 -15
26 -15 7 0 55 -18 106 -41 51 -23 112 -47 136 -55 l43 -13 -3 41 c-2 34 -8 45
-28 55 -39 19 -111 49 -152 63 -28 10 -38 20 -40 39 l-3 26 -9 -23z"/>
<path d="M700 830 c0 -5 7 -10 15 -10 8 0 15 5 15 10 0 6 -7 10 -15 10 -8 0
-15 -4 -15 -10z"/>
<path d="M5820 750 c0 -5 5 -10 10 -10 6 0 10 5 10 10 0 6 -4 10 -10 10 -5 0
-10 -4 -10 -10z"/>
<path d="M5900 725 c0 -8 29 -12 39 -5 9 5 4 8 -13 8 -14 0 -26 -2 -26 -3z"/>
<path d="M580 680 c0 -14 5 -18 16 -13 13 5 15 2 9 -15 -4 -16 -2 -22 9 -22 8
0 17 -8 20 -18 7 -20 93 -75 107 -67 5 3 6 0 4 -8 -7 -16 101 -67 137 -66 15
0 18 2 8 6 -8 3 -17 9 -20 12 -3 3 -17 13 -31 21 -15 8 -46 28 -70 44 -24 16
-53 30 -64 32 -11 1 -19 6 -18 12 2 7 -4 9 -14 5 -11 -4 -14 -3 -9 6 5 8 1 14
-13 18 -11 3 -19 9 -16 13 3 4 -2 13 -10 20 -8 7 -15 19 -15 26 0 8 -7 14 -15
14 -8 0 -15 -9 -15 -20z m144 -116 c3 -8 2 -12 -4 -9 -6 3 -10 10 -10 16 0 14
7 11 14 -7z"/>
<path d="M7310 676 c0 -9 5 -16 10 -16 6 0 10 4 10 9 0 6 -4 13 -10 16 -5 3
-10 -1 -10 -9z"/>
<path d="M7420 657 c0 -3 15 -10 32 -16 18 -6 28 -7 23 -2 -12 10 -55 25 -55
18z"/>
<path d="M7425 615 c17 -8 37 -14 45 -14 8 0 0 6 -19 14 -42 19 -66 18 -26 0z"/>
<path d="M7296 564 c-4 -14 -5 -28 -3 -31 3 -2 8 8 11 23 4 14 5 28 3 31 -3 2
-8 -8 -11 -23z"/>
<path d="M7397 559 c7 -7 15 -10 18 -7 3 3 -2 9 -12 12 -14 6 -15 5 -6 -5z"/>
<path d="M7440 540 c8 -5 20 -10 25 -10 6 0 3 5 -5 10 -8 5 -19 10 -25 10 -5
0 -3 -5 5 -10z"/>
<path d="M7400 520 c8 -5 22 -9 30 -9 10 0 8 3 -5 9 -27 12 -43 12 -25 0z"/>
<path d="M7390 490 c8 -5 20 -10 25 -10 6 0 3 5 -5 10 -8 5 -19 10 -25 10 -5
0 -3 -5 5 -10z"/>
<path d="M7387 459 c7 -7 15 -10 18 -7 3 3 -2 9 -12 12 -14 6 -15 5 -6 -5z"/>
<path d="M7420 446 c0 -2 7 -7 16 -10 8 -3 12 -2 9 4 -6 10 -25 14 -25 6z"/>
<path d="M7410 415 c14 -8 30 -14 35 -14 6 0 -1 6 -15 14 -14 8 -29 14 -35 14
-5 0 1 -6 15 -14z"/>
<path d="M7265 410 c-3 -5 -1 -10 4 -10 6 0 11 5 11 10 0 6 -2 10 -4 10 -3 0
-8 -4 -11 -10z"/>
<path d="M3880 391 c0 -5 5 -13 10 -16 6 -3 10 -2 10 4 0 5 -4 13 -10 16 -5 3
-10 2 -10 -4z"/>
<path d="M7380 392 c8 -5 26 -13 40 -16 17 -5 20 -4 10 2 -8 5 -26 13 -40 16
-17 5 -20 4 -10 -2z"/>
<path d="M7271 364 c0 -11 3 -14 6 -6 3 7 2 16 -1 19 -3 4 -6 -2 -5 -13z"/>
<path d="M7380 355 c14 -8 32 -14 40 -14 8 0 0 6 -19 14 -42 19 -54 19 -21 0z"/>
<path d="M7530 350 c0 -24 26 -38 42 -22 8 8 8 15 -2 27 -18 21 -40 19 -40 -5z"/>
<path d="M7360 334 c0 -7 52 -25 57 -20 2 2 -10 8 -26 14 -17 6 -31 9 -31 6z"/>
<path d="M7255 290 c-4 -17 -5 -34 -2 -36 2 -3 7 10 11 27 8 42 0 50 -9 9z"/>
<path d="M4387 293 c-8 -13 2 -43 14 -43 10 0 10 8 0 34 -5 12 -10 16 -14 9z"/>
<path d="M7370 290 c8 -5 20 -10 25 -10 6 0 3 5 -5 10 -8 5 -19 10 -25 10 -5
0 -3 -5 5 -10z"/>
<path d="M7360 262 c8 -5 26 -13 40 -16 17 -5 20 -4 10 2 -8 5 -26 13 -40 16
-17 5 -20 4 -10 -2z"/>
<path d="M7658 243 c7 -3 16 -2 19 1 4 3 -2 6 -13 5 -11 0 -14 -3 -6 -6z"/>
<path d="M4432 224 c1 -9 9 -19 16 -22 9 -3 13 2 10 14 -1 9 -9 19 -16 22 -9
3 -13 -2 -10 -14z"/>
<path d="M7341 235 c9 -8 79 -35 79 -30 0 2 -16 12 -36 20 -37 15 -51 19 -43
10z"/>
<path d="M7657 209 c7 -7 15 -10 18 -7 3 3 -2 9 -12 12 -14 6 -15 5 -6 -5z"/>
<path d="M7340 205 c0 -8 73 -36 78 -30 3 3 3 5 0 5 -3 0 -22 7 -42 15 -20 8
-36 13 -36 10z"/>
<path d="M7640 184 c0 -2 9 -8 20 -14 11 -6 20 -7 20 -2 0 6 -9 12 -20 15 -11
3 -20 3 -20 1z"/>
<path d="M6498 148 c9 -9 15 -9 24 0 9 9 7 12 -12 12 -19 0 -21 -3 -12 -12z"/>
<path d="M7410 136 c0 -2 7 -7 16 -10 8 -3 12 -2 9 4 -6 10 -25 14 -25 6z"/>
<path d="M6570 120 c20 -13 33 -13 25 0 -3 6 -14 10 -23 10 -15 0 -15 -2 -2
-10z"/>
<path d="M6598 83 c7 -3 16 -2 19 1 4 3 -2 6 -13 5 -11 0 -14 -3 -6 -6z"/>
<path d="M7380 45 c14 -7 27 -11 30 -9 6 7 -22 24 -40 23 -9 0 -5 -6 10 -14z"/>
<path d="M4594 24 c3 -9 6 -18 6 -20 0 -2 4 -4 9 -4 5 0 7 9 4 20 -3 11 -10
20 -15 20 -6 0 -7 -7 -4 -16z"/>
<path d="M7336 25 c8 -19 14 -19 14 0 0 8 -4 15 -10 15 -5 0 -7 -7 -4 -15z"/>
<path d="M7650 30 c8 -5 20 -10 25 -10 6 0 3 5 -5 10 -8 5 -19 10 -25 10 -5 0
-3 -5 5 -10z"/>
<path d="M7450 19 c12 -8 9 -9 -12 -5 -16 4 -28 2 -28 -4 0 -12 40 -13 58 -1
11 7 10 10 -3 15 -25 9 -32 7 -15 -5z"/>
</g>
</svg>
